<svg xmlns="http://www.w3.org/2000/svg" width="191.73" height="13.964" viewBox="0 0 191.73 13.964">
  <g id="グループ_1723" data-name="グループ 1723" transform="translate(-670.564 -286.111)">
    <g id="パス_3394" data-name="パス 3394" transform="translate(20.416 5.644)">
      <path d="M 657.432861328125 294.1654052734375 C 655.9878540039062 294.1654052734375 654.74072265625 293.8687744140625 653.7261352539062 293.2837524414062 C 652.7106323242188 292.6990356445312 651.8956298828125 291.8812866210938 651.3040161132812 290.8533935546875 C 650.713623046875 289.8279418945312 650.4142456054688 288.7023620605469 650.4142456054688 287.5079040527344 C 650.4142456054688 285.6107482910156 651.1006469726562 283.9924926757812 652.454345703125 282.6980895996094 C 653.80322265625 281.4069519042969 655.4898071289062 280.7522583007812 657.4669799804688 280.7522583007812 C 658.82177734375 280.7522583007812 660.3381958007812 281.107421875 661.9740600585938 281.8078918457031 L 662.1351928710938 281.8768920898438 L 662.1351928710938 282.0521850585938 L 662.1351928710938 283.9869995117188 L 662.1351928710938 284.4447021484375 L 661.7376708984375 284.2178039550781 C 660.3133544921875 283.4046936035156 658.9072265625 282.9924011230469 657.5582885742188 282.9924011230469 C 656.1951293945312 282.9924011230469 655.0498046875 283.4269409179688 654.154296875 284.283935546875 C 653.2611694335938 285.1374206542969 652.8084106445312 286.2221069335938 652.8084106445312 287.5079040527344 C 652.8084106445312 288.8233947753906 653.2408447265625 289.8732299804688 654.13037109375 290.7174682617188 C 655.009765625 291.5533142089844 656.1566162109375 291.97705078125 657.5391235351562 291.97705078125 C 659.00634765625 291.97705078125 660.460205078125 291.5191650390625 661.8602905273438 290.6160583496094 L 662.2700805664062 290.3517456054688 L 662.2700805664062 290.8393859863281 L 662.2700805664062 292.8191223144531 L 662.2700805664062 292.9767456054688 L 662.1317749023438 293.0523071289062 C 660.7802734375 293.7909240722656 659.1992797851562 294.1654052734375 657.432861328125 294.1654052734375 Z" stroke="none"/>
      <path d="M 657.432861328125 293.899658203125 C 659.1605834960938 293.899658203125 660.685302734375 293.5399475097656 662.0043334960938 292.8191223144531 L 662.0043334960938 290.8393859863281 C 660.5531616210938 291.7754211425781 659.0639038085938 292.2427978515625 657.5391235351562 292.2427978515625 C 656.0811767578125 292.2427978515625 654.883544921875 291.7999572753906 653.9474487304688 290.9102172851562 C 653.0113525390625 290.0218200683594 652.5426635742188 288.88818359375 652.5426635742188 287.5079040527344 C 652.5426635742188 286.139892578125 653.01953125 285.0007934570312 653.9705810546875 284.0919189453125 C 654.9216918945312 283.1817321777344 656.1180419921875 282.7266540527344 657.5582885742188 282.7266540527344 C 658.9630126953125 282.7266540527344 660.399169921875 283.1476745605469 661.8694458007812 283.9869995117188 L 661.8694458007812 282.0521850585938 C 660.256103515625 281.3613586425781 658.7886352539062 281.0180053710938 657.4669799804688 281.0180053710938 C 655.553955078125 281.0180053710938 653.943359375 281.6407165527344 652.6380004882812 282.8901672363281 C 651.3327026367188 284.1382751464844 650.6799926757812 285.6779479980469 650.6799926757812 287.5079040527344 C 650.6799926757812 288.66064453125 650.9647827148438 289.7315673828125 651.5343627929688 290.7208251953125 C 652.1052856445312 291.7127685546875 652.8792114257812 292.4894409179688 653.85888671875 293.0535278320312 C 654.8372192382812 293.6176452636719 656.0267333984375 293.899658203125 657.432861328125 293.899658203125 M 657.432861328125 294.43115234375 C 655.940673828125 294.43115234375 654.6488647460938 294.12255859375 653.5933837890625 293.5139770507812 C 652.536865234375 292.9056091308594 651.6890258789062 292.0550231933594 651.07373046875 290.9859619140625 C 650.4597778320312 289.919677734375 650.1484985351562 288.7494812011719 650.1484985351562 287.5079040527344 C 650.1484985351562 285.5353698730469 650.8624877929688 283.8525085449219 652.2706909179688 282.5060119628906 C 653.670654296875 281.1660461425781 655.4190063476562 280.4865112304688 657.4669799804688 280.4865112304688 C 658.8579711914062 280.4865112304688 660.4095458984375 280.848876953125 662.0786743164062 281.5635986328125 L 662.4009399414062 281.7015991210938 L 662.4009399414062 284.9024353027344 L 661.60595703125 284.4485778808594 C 660.2222290039062 283.6586608886719 658.8604125976562 283.2581481933594 657.5582885742188 283.2581481933594 C 656.2476806640625 283.2581481933594 655.1943359375 283.656494140625 654.3380737304688 284.4759216308594 C 653.4874877929688 285.2887573242188 653.0741577148438 286.2804565429688 653.0741577148438 287.5079040527344 C 653.0741577148438 288.7465515136719 653.4794921875 289.7333679199219 654.3132934570312 290.5246887207031 C 655.1535034179688 291.3232421875 656.2085571289062 291.7113037109375 657.5391235351562 291.7113037109375 C 658.9544067382812 291.7113037109375 660.3598022460938 291.2676696777344 661.7162475585938 290.3927307128906 L 662.5358276367188 289.8640747070312 L 662.5358276367188 293.1343383789062 L 662.2592163085938 293.2855224609375 C 660.8681640625 294.0457153320312 659.2443237304688 294.43115234375 657.432861328125 294.43115234375 Z" stroke="none" fill="#fff"/>
    </g>
    <g id="パス_3395" data-name="パス 3395" transform="translate(24.429 5.639)">
      <path d="M 668.3803100585938 294.1704711914062 C 666.4221801757812 294.1704711914062 664.7666625976562 293.5320739746094 663.4596557617188 292.2730712890625 C 662.14892578125 291.0118103027344 661.4843139648438 289.4102478027344 661.4843139648438 287.5130004882812 C 661.4843139648438 285.5685424804688 662.1528930664062 283.9355163574219 663.471435546875 282.6593322753906 C 664.7869873046875 281.3846435546875 666.4715576171875 280.73828125 668.4783325195312 280.73828125 C 670.4856567382812 280.73828125 672.1807250976562 281.3841552734375 673.5165405273438 282.657958984375 C 674.8577270507812 283.9340515136719 675.537841796875 285.5556640625 675.537841796875 287.4775390625 C 675.537841796875 289.3991394042969 674.85107421875 291.0136108398438 673.4966430664062 292.2760620117188 C 672.1466064453125 293.5331420898438 670.42529296875 294.1704711914062 668.3803100585938 294.1704711914062 Z M 668.5505981445312 282.9811401367188 C 667.1702880859375 282.9811401367188 666.0707397460938 283.3977966308594 665.1890869140625 284.2548828125 C 664.3193359375 285.0989990234375 663.87841796875 286.1951293945312 663.87841796875 287.5130004882812 C 663.87841796875 288.8073120117188 664.3082885742188 289.8519287109375 665.192626953125 290.7064819335938 C 666.0648193359375 291.5530700683594 667.1766357421875 291.9821166992188 668.4974975585938 291.9821166992188 C 669.8407592773438 291.9821166992188 670.928955078125 291.5563049316406 671.8243408203125 290.6803283691406 C 672.7052612304688 289.8186340332031 673.1519165039062 288.7286682128906 673.1519165039062 287.4407348632812 C 673.1519165039062 286.1727600097656 672.7179565429688 285.1356201171875 671.8251953125 284.2700805664062 C 670.9293212890625 283.4028015136719 669.858154296875 282.9811401367188 668.5505981445312 282.9811401367188 Z" stroke="none"/>
      <path d="M 668.4783325195312 281.0040283203125 C 666.5367431640625 281.0040283203125 664.927490234375 281.6185302734375 663.65625 282.8502807617188 C 662.385009765625 284.0806884765625 661.7500610351562 285.634033203125 661.7500610351562 287.5130004882812 C 661.7500610351562 289.3428955078125 662.3809204101562 290.8662109375 663.64404296875 292.0816650390625 C 664.9057006835938 293.2970581054688 666.4849243164062 293.9047241210938 668.3803100585938 293.9047241210938 C 670.3655395507812 293.9047241210938 672.0101928710938 293.2970581054688 673.3154296875 292.0816650390625 C 674.6194458007812 290.8662109375 675.2720947265625 289.3319702148438 675.2720947265625 287.4775390625 C 675.2720947265625 285.6231079101562 674.6262817382812 284.0806884765625 673.3331298828125 282.8502807617188 C 672.0414428710938 281.6185302734375 670.42138671875 281.0040283203125 668.4783325195312 281.0040283203125 M 668.4974975585938 292.2478637695312 C 667.0994873046875 292.2478637695312 665.9358520507812 291.7982177734375 665.0079345703125 290.8975830078125 C 664.0773315429688 289.998291015625 663.6126708984375 288.8701171875 663.6126708984375 287.5130004882812 C 663.6126708984375 286.114990234375 664.0758666992188 284.9649658203125 665.0038452148438 284.0643310546875 C 665.9303588867188 283.1636352539062 667.1116943359375 282.7153930664062 668.5505981445312 282.7153930664062 C 669.917236328125 282.7153930664062 671.0700073242188 283.1691284179688 672.0101928710938 284.0792846679688 C 672.9476318359375 284.9881591796875 673.4176635742188 286.108154296875 673.4176635742188 287.4407348632812 C 673.4176635742188 288.8087768554688 672.9476318359375 289.9533081054688 672.0101928710938 290.8703002929688 C 671.0700073242188 291.7901000976562 669.90087890625 292.2478637695312 668.4974975585938 292.2478637695312 M 668.4783325195312 280.4725341796875 C 670.5562133789062 280.4725341796875 672.3130493164062 281.1430969238281 673.6998901367188 282.4656372070312 C 675.095703125 283.7936706542969 675.8035888671875 285.4800415039062 675.8035888671875 287.4775390625 C 675.8035888671875 289.475830078125 675.08837890625 291.1557006835938 673.6777954101562 292.470458984375 C 672.2769165039062 293.77490234375 670.4946899414062 294.4362182617188 668.3803100585938 294.4362182617188 C 666.35107421875 294.4362182617188 664.6334838867188 293.7728271484375 663.2752685546875 292.4644470214844 C 661.91064453125 291.1512451171875 661.2185668945312 289.4852905273438 661.2185668945312 287.5130004882812 C 661.2185668945312 285.4938049316406 661.9143676757812 283.7965393066406 663.28662109375 282.4683532714844 C 664.6533203125 281.1441040039062 666.400146484375 280.4725341796875 668.4783325195312 280.4725341796875 Z M 668.4974975585938 291.7163696289062 C 669.767822265625 291.7163696289062 670.7952880859375 291.3153381347656 671.6384887695312 290.4903869628906 C 672.4780883789062 289.6691284179688 672.8861694335938 288.6716003417969 672.8861694335938 287.4407348632812 C 672.8861694335938 286.2484436035156 672.4786376953125 285.2737121582031 671.6402587890625 284.4608764648438 C 670.7965087890625 283.6440734863281 669.7857666015625 283.2468872070312 668.5505981445312 283.2468872070312 C 667.242919921875 283.2468872070312 666.2039184570312 283.6389465332031 665.3743286132812 284.4454345703125 C 664.5464477539062 285.2489013671875 664.1441650390625 286.2522277832031 664.1441650390625 287.5130004882812 C 664.1441650390625 288.7314453125 664.5475463867188 289.7135314941406 665.3772583007812 290.515380859375 C 666.2101440429688 291.3237915039062 667.2305297851562 291.7163696289062 668.4974975585938 291.7163696289062 Z" stroke="none" fill="#fff"/>
    </g>
    <g id="パス_3396" data-name="パス 3396" transform="translate(29.069 5.686)">
      <path d="M 684.771728515625 293.9782104492188 L 684.243408203125 293.9782104492188 L 682.0986328125 293.9782104492188 L 681.9557495117188 293.9782104492188 L 681.876953125 293.8590087890625 L 681.329345703125 293.0305786132812 L 681.3258666992188 293.0252990722656 L 681.3226318359375 293.0198669433594 C 681.3170776367188 293.0105285644531 681.3001708984375 292.982177734375 680.4622802734375 291.3281555175781 L 680.4600830078125 291.3238525390625 L 680.4580688476562 291.3194580078125 C 680.4476928710938 291.2969665527344 679.4110717773438 289.0615539550781 678.724609375 288.3815307617188 C 678.439208984375 288.0986022949219 678.1770629882812 287.8913269042969 677.9453735351562 287.7653503417969 C 677.8019409179688 287.6885070800781 677.4879760742188 287.5960083007812 676.814697265625 287.5960083007812 L 676.613037109375 287.5960083007812 L 676.613037109375 293.7124633789062 L 676.613037109375 293.9782104492188 L 676.3472900390625 293.9782104492188 L 674.5460205078125 293.9782104492188 L 674.2802734375 293.9782104492188 L 674.2802734375 293.7124633789062 L 674.2802734375 281.135986328125 L 674.2802734375 280.8702392578125 L 674.5460205078125 280.8702392578125 L 677.6961669921875 280.8702392578125 C 679.02880859375 280.8702392578125 680.1060791015625 281.2095031738281 680.8980712890625 281.8786010742188 C 681.6041870117188 282.4728088378906 682.0703735351562 282.921875 682.1119384765625 283.7150268554688 C 682.1517333984375 284.45068359375 681.951416015625 285.1451721191406 681.5166015625 285.7787780761719 C 681.20654296875 286.2333984375 680.7861328125 286.6004028320312 680.2633666992188 286.87353515625 C 680.5693359375 287.0965576171875 680.8857421875 287.3755187988281 681.1292114257812 287.7660217285156 C 681.4357299804688 288.2591857910156 682.1290283203125 289.5577697753906 682.855712890625 290.9996948242188 C 683.0675048828125 291.3462219238281 683.2344970703125 291.664306640625 683.3820190429688 291.9452819824219 C 683.5339965820312 292.2347106933594 683.6652221679688 292.4846801757812 683.79052734375 292.65673828125 L 684.456787109375 293.5540466308594 L 684.771728515625 293.9782104492188 Z M 676.613037109375 285.4620971679688 L 677.0313720703125 285.4620971679688 C 678.1139526367188 285.4620971679688 678.589599609375 285.347900390625 678.7979125976562 285.2521057128906 C 679.0443115234375 285.1387634277344 679.2166748046875 284.9393615722656 679.4161987304688 284.7084350585938 C 679.4441528320312 284.6761474609375 679.4722290039062 284.6436462402344 679.500732421875 284.6111145019531 C 679.6632080078125 284.4266357421875 679.6080322265625 283.9363708496094 679.447021484375 283.6907043457031 C 679.2689208984375 283.4179077148438 679.0228271484375 283.2295532226562 678.6943969726562 283.114501953125 C 678.3440551757812 282.9944763183594 677.7353515625 282.9332885742188 676.8868408203125 282.9332885742188 L 676.613037109375 282.9332885742188 L 676.613037109375 285.4620971679688 Z" stroke="none"/>
      <path d="M 684.243408203125 293.7124633789062 L 683.57568359375 292.8131713867188 C 683.312744140625 292.4520874023438 683.0606689453125 291.843017578125 682.623291015625 291.1290283203125 C 681.9024658203125 289.6983642578125 681.2034912109375 288.3889770507812 680.9036865234375 287.9066162109375 C 680.587646484375 287.3997192382812 680.1243896484375 287.0904541015625 679.7222900390625 286.8261108398438 C 680.4063720703125 286.5631103515625 680.9322509765625 286.1638793945312 681.2974853515625 285.62841796875 C 681.6640625 285.09423828125 681.8861083984375 284.4606323242188 681.8465576171875 283.7289428710938 C 681.8126220703125 283.0817260742188 681.474609375 282.7111206054688 680.7265625 282.0816040039062 C 679.9798583984375 281.4507446289062 678.9688720703125 281.135986328125 677.6961669921875 281.135986328125 L 674.5460205078125 281.135986328125 L 674.5460205078125 293.7124633789062 L 676.3472900390625 293.7124633789062 L 676.3472900390625 287.3302612304688 L 676.814697265625 287.3302612304688 C 677.4033203125 287.3302612304688 677.822998046875 287.3983154296875 678.072265625 287.5318603515625 C 678.322998046875 287.6681518554688 678.6024169921875 287.8861694335938 678.91162109375 288.1927490234375 C 679.640625 288.9148559570312 680.6993408203125 291.2080688476562 680.6993408203125 291.2080688476562 C 680.6993408203125 291.2080688476562 681.533203125 292.8540649414062 681.551025390625 292.884033203125 L 682.0986328125 293.7124633789062 L 684.243408203125 293.7124633789062 M 676.3472900390625 282.6675415039062 L 676.8868408203125 282.6675415039062 C 677.7684326171875 282.6675415039062 678.4007568359375 282.7329711914062 678.7822265625 282.8637084960938 C 679.1636962890625 282.997314453125 679.4593505859375 283.2234497070312 679.6693115234375 283.5450439453125 C 679.879150390625 283.865234375 679.962158203125 284.4892578125 679.7005615234375 284.7863159179688 C 679.4580078125 285.0629272460938 679.246826171875 285.338134765625 678.908935546875 285.4935302734375 C 678.5682373046875 285.6502075195312 677.9442138671875 285.7278442382812 677.0313720703125 285.7278442382812 L 676.3472900390625 285.7278442382812 L 676.3472900390625 282.6675415039062 M 685.300048828125 294.2439575195312 L 681.8128662109375 294.2439575195312 L 681.0941772460938 293.1556701660156 C 681.0821533203125 293.1354370117188 681.0671997070312 293.1102600097656 680.2252197265625 291.4482421875 L 680.216796875 291.430908203125 C 679.9332885742188 290.8170471191406 679.0789184570312 289.1065673828125 678.53759765625 288.5703430175781 C 678.2699584960938 288.3050231933594 678.028076171875 288.11279296875 677.8184204101562 287.9988403320312 C 677.7459106445312 287.9599914550781 677.5059204101562 287.8679504394531 676.8787841796875 287.862060546875 L 676.8787841796875 294.2439575195312 L 674.0145263671875 294.2439575195312 L 674.0145263671875 280.6044921875 L 677.6961669921875 280.6044921875 C 679.0933227539062 280.6044921875 680.2283325195312 280.9648742675781 681.069580078125 281.6755981445312 C 681.8052978515625 282.2947387695312 682.3302612304688 282.8028564453125 682.3773193359375 283.7011108398438 C 682.4202880859375 284.4962158203125 682.2044677734375 285.2461242675781 681.7357177734375 285.9291687011719 C 681.4724731445312 286.3151245117188 681.1363525390625 286.6422119140625 680.7318725585938 286.9069519042969 C 680.955078125 287.1013488769531 681.1739501953125 287.3355102539062 681.3546752929688 287.6254272460938 C 681.6644897460938 288.1238098144531 682.3599853515625 289.4259338378906 683.088134765625 290.8703918457031 C 683.3016967773438 291.2206115722656 683.4691772460938 291.5396728515625 683.6173095703125 291.8217468261719 C 683.764404296875 292.1019592285156 683.8914794921875 292.3439331054688 684.0053100585938 292.5003051757812 L 685.300048828125 294.2439575195312 Z M 676.8787841796875 285.1963500976562 L 677.0313720703125 285.1963500976562 C 678.1204223632812 285.1963500976562 678.5360717773438 285.0800170898438 678.6868896484375 285.0106506347656 C 678.8809204101562 284.9214172363281 679.0284423828125 284.750732421875 679.2151489257812 284.53466796875 C 679.2434692382812 284.5018920898438 679.2720336914062 284.4689025878906 679.3009643554688 284.4358825683594 C 679.3587646484375 284.3559265136719 679.342529296875 284.0160522460938 679.2247924804688 283.8363647460938 C 679.0796508789062 283.6140747070312 678.8775634765625 283.4602661132812 678.6065063476562 283.3653259277344 C 678.3870239257812 283.2901000976562 677.9071044921875 283.1990356445312 676.8868408203125 283.1990356445312 L 676.8787841796875 283.1990356445312 L 676.8787841796875 285.1963500976562 Z" stroke="none" fill="#fff"/>
    </g>
    <g id="パス_3397" data-name="パス 3397" transform="translate(32.698 5.686)">
      <path d="M 692.1223754882812 293.9605102539062 L 691.8566284179688 293.9605102539062 L 684.5560913085938 293.9605102539062 L 684.2903442382812 293.9605102539062 L 684.2903442382812 293.6947631835938 L 684.2903442382812 281.135986328125 L 684.2903442382812 280.8702392578125 L 684.5560913085938 280.8702392578125 L 691.6863403320312 280.8702392578125 L 691.9520874023438 280.8702392578125 L 691.9520874023438 281.135986328125 L 691.9520874023438 282.73974609375 L 691.9520874023438 283.0054931640625 L 691.6863403320312 283.0054931640625 L 686.6217651367188 283.0054931640625 L 686.6217651367188 285.4620971679688 L 690.1302490234375 285.4620971679688 L 690.39599609375 285.4620971679688 L 690.39599609375 285.7278442382812 L 690.39599609375 287.3397827148438 L 690.39599609375 287.6055297851562 L 690.1302490234375 287.6055297851562 L 686.6217651367188 287.6055297851562 L 686.6217651367188 291.82666015625 L 691.8566284179688 291.82666015625 L 692.1223754882812 291.82666015625 L 692.1223754882812 292.0924072265625 L 692.1223754882812 293.6947631835938 L 692.1223754882812 293.9605102539062 Z" stroke="none"/>
      <path d="M 684.5560913085938 281.135986328125 L 684.5560913085938 293.6947631835938 L 691.8566284179688 293.6947631835938 L 691.8566284179688 292.0924072265625 L 686.3560180664062 292.0924072265625 L 686.3560180664062 287.3397827148438 L 690.1302490234375 287.3397827148438 L 690.1302490234375 285.7278442382812 L 686.3560180664062 285.7278442382812 L 686.3560180664062 282.73974609375 L 691.6863403320312 282.73974609375 L 691.6863403320312 281.135986328125 L 684.5560913085938 281.135986328125 M 684.0245971679688 280.6044921875 L 692.2178344726562 280.6044921875 L 692.2178344726562 283.271240234375 L 686.8875122070312 283.271240234375 L 686.8875122070312 285.1963500976562 L 690.6617431640625 285.1963500976562 L 690.6617431640625 287.8712768554688 L 686.8875122070312 287.8712768554688 L 686.8875122070312 291.5609130859375 L 692.3881225585938 291.5609130859375 L 692.3881225585938 294.2262573242188 L 684.0245971679688 294.2262573242188 L 684.0245971679688 280.6044921875 Z" stroke="none" fill="#fff"/>
    </g>
    <path id="パス_3398" data-name="パス 3398" d="M785.645,281.136h7.13v1.6h-5.329v2.988h3.773v1.612h-3.773v4.753h5.5v1.6h-7.3Z" transform="translate(69.349 5.686)"/>
    <g id="パス_3399" data-name="パス 3399" transform="translate(35.836 5.686)">
      <path d="M 697.1873779296875 293.9605102539062 L 693.2100219726562 293.9605102539062 L 692.9442749023438 293.9605102539062 L 692.9442749023438 293.6947631835938 L 692.9442749023438 281.135986328125 L 692.9442749023438 280.8702392578125 L 693.2100219726562 280.8702392578125 L 697.4489135742188 280.8702392578125 C 699.1954345703125 280.8702392578125 700.6025390625 281.1391906738281 701.6312255859375 281.6696472167969 C 702.6697387695312 282.2045593261719 703.5053100585938 283.0006103515625 704.1146850585938 284.03564453125 C 704.724853515625 285.0680847167969 705.0343627929688 286.2101135253906 705.0343627929688 287.4296875 C 705.0343627929688 288.3009948730469 704.8641357421875 289.1471252441406 704.5284423828125 289.9445495605469 C 704.189697265625 290.7442016601562 703.7029418945312 291.4551696777344 703.0814819335938 292.0582580566406 C 702.4463500976562 292.6807250976562 701.697509765625 293.1580200195312 700.856689453125 293.4759826660156 C 700.3667602539062 293.66748046875 699.9095458984375 293.798095703125 699.50048828125 293.8631591796875 C 699.0845947265625 293.9286804199219 698.328125 293.9605102539062 697.1873779296875 293.9605102539062 Z M 695.2756958007812 291.82666015625 L 697.3140258789062 291.82666015625 C 698.1914672851562 291.82666015625 698.8758544921875 291.7669372558594 699.34814453125 291.6492004394531 C 699.8206787109375 291.5329895019531 700.2173461914062 291.3848266601562 700.5279541015625 291.2085571289062 C 700.8394775390625 291.0318603515625 701.1279907226562 290.8116760253906 701.385498046875 290.5541687011719 C 702.2176513671875 289.7092590332031 702.6402587890625 288.6241149902344 702.6402587890625 287.3302612304688 C 702.6402587890625 286.046630859375 702.2198486328125 285.0292663574219 701.3550415039062 284.2200622558594 C 701.0367431640625 283.9197998046875 700.671142578125 283.6726684570312 700.267578125 283.4848022460938 C 699.8531494140625 283.2898864746094 699.4597778320312 283.1605834960938 699.097412109375 283.1000061035156 C 698.7238159179688 283.0372924804688 698.1055297851562 283.0054931640625 697.259521484375 283.0054931640625 L 695.2756958007812 283.0054931640625 L 695.2756958007812 291.82666015625 Z" stroke="none"/>
      <path d="M 697.1873779296875 293.6947631835938 C 698.3060302734375 293.6947631835938 699.0609130859375 293.6633911132812 699.458740234375 293.6007080078125 C 699.8525390625 293.5380859375 700.28857421875 293.4127197265625 700.7626953125 293.2274169921875 C 701.5734252929688 292.9208374023438 702.28466796875 292.4671020507812 702.8964233398438 291.8675537109375 C 703.4959716796875 291.2857055664062 703.9579467773438 290.6099243164062 704.2835083007812 289.8414306640625 C 704.6064453125 289.0743408203125 704.7686157226562 288.26904296875 704.7686157226562 287.4296875 C 704.7686157226562 286.25244140625 704.4743041992188 285.1664428710938 703.8856811523438 284.1704711914062 C 703.2984619140625 283.1730346679688 702.5067749023438 282.4195556640625 701.5093994140625 281.9058227539062 C 700.5133666992188 281.3922119140625 699.1603393554688 281.135986328125 697.4489135742188 281.135986328125 L 693.2100219726562 281.135986328125 L 693.2100219726562 293.6947631835938 L 697.1873779296875 293.6947631835938 M 695.0099487304688 282.73974609375 L 697.259521484375 282.73974609375 C 698.1248168945312 282.73974609375 698.7515258789062 282.7724609375 699.1412353515625 282.837890625 C 699.5322875976562 282.9032592773438 699.9451904296875 283.0394897460938 700.3797607421875 283.243896484375 C 700.8157958984375 283.4468994140625 701.2000122070312 283.70849609375 701.53662109375 284.0260009765625 C 702.4481811523438 284.8789672851562 702.906005859375 285.9799194335938 702.906005859375 287.3302612304688 C 702.906005859375 288.7036743164062 702.46044921875 289.8414306640625 701.5734252929688 290.7420654296875 C 701.2968139648438 291.0186767578125 700.9929809570312 291.2503051757812 700.6591186523438 291.439697265625 C 700.3253173828125 291.6290893554688 699.9110717773438 291.784423828125 699.4124145507812 291.9070434570312 C 698.9150390625 292.0310668945312 698.2147216796875 292.0924072265625 697.3140258789062 292.0924072265625 L 695.0099487304688 292.0924072265625 L 695.0099487304688 282.73974609375 M 697.1873779296875 294.2262573242188 L 692.6785278320312 294.2262573242188 L 692.6785278320312 280.6044921875 L 697.4489135742188 280.6044921875 C 699.2381591796875 280.6044921875 700.686279296875 280.8833923339844 701.7529907226562 281.4334411621094 C 702.8367309570312 281.9916687011719 703.70849609375 282.8218688964844 704.3436889648438 283.9008178710938 C 704.9781494140625 284.974365234375 705.3001098632812 286.1619262695312 705.3001098632812 287.4296875 C 705.3001098632812 288.3366088867188 705.1228637695312 289.2174377441406 704.7733764648438 290.0476684570312 C 704.42041015625 290.8807373046875 703.9136352539062 291.6210021972656 703.2665405273438 292.2489624023438 C 702.606689453125 292.8957214355469 701.8278198242188 293.3924255371094 700.9535522460938 293.7234802246094 C 700.4441528320312 293.9223937988281 699.9693603515625 294.0576782226562 699.542236328125 294.1256103515625 C 699.1121215820312 294.1933898925781 698.3421020507812 294.2262573242188 697.1873779296875 294.2262573242188 Z M 695.5414428710938 291.5609130859375 L 697.3140258789062 291.5609130859375 C 698.1698608398438 291.5609130859375 698.8325805664062 291.5038452148438 699.2838134765625 291.3913269042969 C 699.7335205078125 291.28076171875 700.107421875 291.1416320800781 700.3968505859375 290.9774169921875 C 700.691650390625 290.8101806640625 700.9535522460938 290.6102600097656 701.1976318359375 290.3662414550781 C 701.9885864257812 289.5630798339844 702.37451171875 288.5690612792969 702.37451171875 287.3302612304688 C 702.37451171875 286.1242065429688 701.9816284179688 285.1703186035156 701.1734619140625 284.4140930175781 C 700.8751220703125 284.1326599121094 700.5331420898438 283.9015502929688 700.1554565429688 283.7257385253906 C 699.7620849609375 283.5407104492188 699.3920288085938 283.4186706542969 699.0535888671875 283.3621215820312 C 698.6943359375 283.3017883300781 698.0908203125 283.271240234375 697.259521484375 283.271240234375 L 695.5414428710938 283.271240234375 L 695.5414428710938 291.5609130859375 Z" stroke="none" fill="#fff"/>
    </g>
    <g id="パス_3400" data-name="パス 3400" transform="translate(39.8 5.639)">
      <path d="M 710.7742919921875 294.1704711914062 C 708.8162231445312 294.1704711914062 707.1607055664062 293.5321044921875 705.8535766601562 292.2730712890625 C 704.5428466796875 291.0117492675781 703.8782348632812 289.4101867675781 703.8782348632812 287.5130004882812 C 703.8782348632812 285.5685424804688 704.5468139648438 283.935546875 705.865478515625 282.6593017578125 C 707.1810302734375 281.3846435546875 708.8656005859375 280.73828125 710.872314453125 280.73828125 C 712.8787231445312 280.73828125 714.5733642578125 281.3841552734375 715.9091796875 282.657958984375 C 717.251220703125 283.9349060058594 717.9318237304688 285.5565185546875 717.9318237304688 287.4775390625 C 717.9318237304688 289.3991088867188 717.2450561523438 291.0135803222656 715.8906860351562 292.2760620117188 C 714.5390625 293.5331726074219 712.8177490234375 294.1704711914062 710.7742919921875 294.1704711914062 Z M 710.944580078125 282.9811401367188 C 709.5646362304688 282.9811401367188 708.464599609375 283.3978271484375 707.5816040039062 284.2550048828125 C 706.712890625 285.0994262695312 706.2723999023438 286.1956176757812 706.2723999023438 287.5130004882812 C 706.2723999023438 288.807373046875 706.7022705078125 289.8519592285156 707.5865478515625 290.7064819335938 C 708.4588012695312 291.5530700683594 709.5706176757812 291.9821166992188 710.8914794921875 291.9821166992188 C 712.2351684570312 291.9821166992188 713.3228149414062 291.5563354492188 714.2167358398438 290.6804809570312 C 715.097900390625 289.8197937011719 715.5445556640625 288.7298889160156 715.5445556640625 287.4407348632812 C 715.5445556640625 286.1715393066406 715.110595703125 285.1344604492188 714.2178955078125 284.2702331542969 C 713.3356323242188 283.414794921875 712.234375 282.9811401367188 710.944580078125 282.9811401367188 Z" stroke="none"/>
      <path d="M 710.872314453125 281.0040283203125 C 708.9293823242188 281.0040283203125 707.321533203125 281.6185302734375 706.05029296875 282.8502807617188 C 704.7789916992188 284.0806884765625 704.1439819335938 285.634033203125 704.1439819335938 287.5130004882812 C 704.1439819335938 289.3428955078125 704.77490234375 290.8662109375 706.0379638671875 292.0816650390625 C 707.2997436523438 293.2970581054688 708.8775634765625 293.9047241210938 710.7742919921875 293.9047241210938 C 712.7594604492188 293.9047241210938 714.4027099609375 293.2970581054688 715.70947265625 292.0816650390625 C 717.013427734375 290.8662109375 717.6660766601562 289.3319702148438 717.6660766601562 287.4775390625 C 717.6660766601562 285.6231079101562 717.0189208984375 284.0806884765625 715.7257690429688 282.8502807617188 C 714.43408203125 281.6185302734375 712.8153686523438 281.0040283203125 710.872314453125 281.0040283203125 M 710.8914794921875 292.2478637695312 C 709.4934692382812 292.2478637695312 708.329833984375 291.7982177734375 707.40185546875 290.8975830078125 C 706.4712524414062 289.998291015625 706.0066528320312 288.8701171875 706.0066528320312 287.5130004882812 C 706.0066528320312 286.114990234375 706.469970703125 284.9649658203125 707.396484375 284.0643310546875 C 708.3243408203125 283.1636352539062 709.5056762695312 282.7153930664062 710.944580078125 282.7153930664062 C 712.3112182617188 282.7153930664062 713.4639892578125 283.1691284179688 714.4027099609375 284.0792846679688 C 715.341552734375 284.9881591796875 715.810302734375 286.108154296875 715.810302734375 287.4407348632812 C 715.810302734375 288.8087768554688 715.341552734375 289.9533081054688 714.4027099609375 290.8703002929688 C 713.4639892578125 291.7901000976562 712.2948608398438 292.2478637695312 710.8914794921875 292.2478637695312 M 710.872314453125 280.4725341796875 C 712.9493408203125 280.4725341796875 714.7056884765625 281.1430969238281 716.092529296875 282.4656372070312 C 717.4891967773438 283.7945251464844 718.1975708007812 285.4808959960938 718.1975708007812 287.4775390625 C 718.1975708007812 289.4757995605469 717.4823608398438 291.1556701660156 716.0718994140625 292.470458984375 C 714.6692504882812 293.7749633789062 712.8870849609375 294.4362182617188 710.7742919921875 294.4362182617188 C 708.7451171875 294.4362182617188 707.0275268554688 293.7728271484375 705.6692504882812 292.4644775390625 C 704.3045654296875 291.1511840820312 703.6124877929688 289.4852294921875 703.6124877929688 287.5130004882812 C 703.6124877929688 285.4938049316406 704.308349609375 283.7965698242188 705.6806640625 282.4683532714844 C 707.04736328125 281.1441040039062 708.794189453125 280.4725341796875 710.872314453125 280.4725341796875 Z M 710.8914794921875 291.7163696289062 C 712.162109375 291.7163696289062 713.18896484375 291.3154296875 714.0307006835938 290.4906616210938 C 714.8707275390625 289.6701965332031 715.27880859375 288.6727600097656 715.27880859375 287.4407348632812 C 715.27880859375 286.247314453125 714.871337890625 285.2726745605469 714.0330200195312 284.4611511230469 C 713.1902465820312 283.6439819335938 712.1800537109375 283.2468872070312 710.944580078125 283.2468872070312 C 709.63720703125 283.2468872070312 708.59765625 283.6390380859375 707.7666625976562 284.4457092285156 C 706.9400634765625 285.2492065429688 706.5381469726562 286.2525939941406 706.5381469726562 287.5130004882812 C 706.5381469726562 288.7315063476562 706.9414672851562 289.7135925292969 707.7711791992188 290.515380859375 C 708.6041259765625 291.3237915039062 709.62451171875 291.7163696289062 710.8914794921875 291.7163696289062 Z" stroke="none" fill="#fff"/>
    </g>
    <path id="パス_3401" data-name="パス 3401" d="M730.547,281.136h1.683v12.576h-1.809v-9.785l-3.866,4.244h-.334l-3.912-4.244v9.785h-1.8V281.136h1.706l4.179,4.548Z" transform="translate(45.733 5.686)"/>
    <path id="パス_3402" data-name="パス 3402" d="M748.125,286.63h4.223v6.261a11.5,11.5,0,0,1-4.609,1.008,6.84,6.84,0,0,1-4.992-1.823,6.034,6.034,0,0,1-1.868-4.5,6.253,6.253,0,0,1,1.935-4.69,6.7,6.7,0,0,1,4.853-1.872,8.564,8.564,0,0,1,2.017.229,16.359,16.359,0,0,1,2.412.842v1.835a8.84,8.84,0,0,0-4.466-1.305,4.739,4.739,0,0,0-3.473,1.4,4.975,4.975,0,0,0,0,6.949,5.023,5.023,0,0,0,3.637,1.36,8.481,8.481,0,0,0,2.583-.495l.172-.053v-3.552h-2.421Z" transform="translate(53.118 5.644)"/>
    <path id="パス_3403" data-name="パス 3403" d="M760.994,281.123H771.83L763.8,292.115h8.032v1.6H760.48l8.046-10.992h-7.532Z" transform="translate(60.225 5.682)"/>
    <path id="パス_3404" data-name="パス 3404" d="M770.627,281.136h1.8v12.576h-1.8Z" transform="translate(63.904 5.686)"/>
    <path id="パス_3405" data-name="パス 3405" d="M784.518,281.136h1.71v12.576H784.68l-8.408-9.685v9.685h-1.692V281.136h1.459l8.479,9.768Z" transform="translate(65.337 5.686)"/>
    <g id="グループ_1721" data-name="グループ 1721" transform="translate(780.024 286.75)">
      <path id="パス_3406" data-name="パス 3406" d="M738.671,288.4l-2.029-4.555-1.883,4.555-.713,1.6-1.572,3.727h-1.85l5.4-12.649h1.267l5.637,12.649h-1.842l-1.676-3.727Z" transform="translate(-730.624 -281.083)"/>
      <rect id="長方形_108" data-name="長方形 108" width="5.485" height="1.526" transform="translate(3.41 5.598)"/>
    </g>
    <g id="グループ_1722" data-name="グループ 1722" transform="translate(807.443 286.75)">
      <path id="パス_3407" data-name="パス 3407" d="M758.794,288.4l-2.029-4.555-1.882,4.555-.714,1.6-1.572,3.727h-1.85l5.4-12.649h1.267l5.638,12.649H761.21l-1.675-3.727Z" transform="translate(-750.747 -281.083)"/>
      <rect id="長方形_109" data-name="長方形 109" width="5.485" height="1.526" transform="translate(3.411 5.598)"/>
    </g>
  </g>
</svg>
