<svg xmlns="http://www.w3.org/2000/svg" width="134.531" height="10.105" viewBox="0 0 134.531 10.105">
  <g id="グループ_331" data-name="グループ 331" transform="translate(-72.469 -125.569)">
    <g id="グループ_294" data-name="グループ 294" transform="translate(-192.649 -308.288)">
      <g id="パス_937" data-name="パス 937" transform="translate(0 0.002)" fill="none">
        <path d="M273.586,441.283v1.387a6.579,6.579,0,0,1-3.2.758,4.941,4.941,0,0,1-2.505-.593,4.357,4.357,0,0,1-1.628-1.634,4.436,4.436,0,0,1-.6-2.253,4.3,4.3,0,0,1,1.373-3.236,4.7,4.7,0,0,1,3.384-1.313,7.923,7.923,0,0,1,3.086.726v1.356a6.075,6.075,0,0,0-3.022-.883,3.491,3.491,0,0,0-2.514.956,3.375,3.375,0,0,0-.017,4.779,3.508,3.508,0,0,0,2.517.933A5.712,5.712,0,0,0,273.586,441.283Z" stroke="none"/>
        <path d="M 270.3818969726562 443.4279174804688 C 271.5934448242188 443.4279174804688 272.6606140136719 443.1748046875 273.585693359375 442.669921875 L 273.585693359375 441.2828369140625 C 272.5686950683594 441.9381713867188 271.5254211425781 442.2664184570312 270.4558715820312 442.2664184570312 C 269.4341125488281 442.2664184570312 268.594970703125 441.9561157226562 267.9384155273438 441.3330078125 C 267.2831420898438 440.7098999023438 266.9548645019531 439.9149169921875 266.9548645019531 438.947998046875 C 266.9548645019531 437.9883422851562 267.2879028320312 437.1909790039062 267.9551391601562 436.5535278320312 C 268.6212463378906 435.9161376953125 269.4591979980469 435.597412109375 270.4690246582031 435.597412109375 C 271.4537963867188 435.597412109375 272.4612426757812 435.8922119140625 273.4913940429688 436.480712890625 L 273.4913940429688 435.1246948242188 C 272.3598022460938 434.6400756835938 271.3320617675781 434.39892578125 270.40576171875 434.39892578125 C 269.0652465820312 434.39892578125 267.9360656738281 434.8358764648438 267.021728515625 435.7119750976562 C 266.1061706542969 436.5857543945312 265.6489868164062 437.6648559570312 265.6489868164062 438.947998046875 C 265.6489868164062 439.7549438476562 265.8483581542969 440.5069580078125 266.2481994628906 441.2005004882812 C 266.6468811035156 441.8952026367188 267.1900329589844 442.4383544921875 267.8764038085938 442.8345947265625 C 268.562744140625 443.229736328125 269.3959045410156 443.4279174804688 270.3818969726562 443.4279174804688 M 270.3818969726562 443.9594116210938 C 269.3089599609375 443.9594116210938 268.3767700195312 443.7359313964844 267.6112060546875 443.2951965332031 C 266.8432922363281 442.8518676757812 266.2297973632812 442.2362365722656 265.7872314453125 441.4650573730469 C 265.3429870605469 440.6945190429688 265.1174926757812 439.8473510742188 265.1174926757812 438.947998046875 C 265.1174926757812 437.5191345214844 265.6347045898438 436.3009948730469 266.65478515625 435.3274841308594 C 267.6656188964844 434.35888671875 268.9278869628906 433.867431640625 270.40576171875 433.867431640625 C 271.4010620117188 433.867431640625 272.5096435546875 434.1260375976562 273.7006225585938 434.6361083984375 L 274.0228881835938 434.7741088867188 L 274.0228881835938 437.3964538574219 L 273.2277526855469 436.9421997070312 C 272.2830810546875 436.4025268554688 271.3549194335938 436.12890625 270.4690246582031 436.12890625 C 269.5933532714844 436.12890625 268.8912353515625 436.3934020996094 268.3226013183594 436.9375305175781 C 267.7597961425781 437.4752197265625 267.4863586425781 438.1327514648438 267.4863586425781 438.947998046875 C 267.4863586425781 439.7700805664062 267.7540283203125 440.4242553710938 268.3046569824219 440.9478454589844 C 268.8626098632812 441.4773559570312 269.5663757324219 441.7349243164062 270.4558715820312 441.7349243164062 C 271.4160461425781 441.7349243164062 272.3721923828125 441.4324951171875 273.2977905273438 440.8360595703125 L 274.1171875 440.3080749511719 L 274.1171875 442.9853515625 L 273.8403015136719 443.136474609375 C 272.8397521972656 443.6825256347656 271.6761779785156 443.9594116210938 270.3818969726562 443.9594116210938 Z" stroke="none" fill="#fff"/>
      </g>
      <g id="パス_938" data-name="パス 938" transform="translate(1.715)" fill="none">
        <path d="M279.221,434.388a4.733,4.733,0,0,1,3.4,1.294,4.286,4.286,0,0,1,1.36,3.243,4.219,4.219,0,0,1-1.372,3.227,4.874,4.874,0,0,1-3.458,1.278,4.594,4.594,0,0,1-3.32-1.278,4.256,4.256,0,0,1-1.327-3.2,4.356,4.356,0,0,1,1.336-3.268A4.663,4.663,0,0,1,279.221,434.388Zm.05,1.2a3.422,3.422,0,0,0-2.486.945,3.226,3.226,0,0,0-.974,2.417,3.163,3.163,0,0,0,.978,2.372,3.626,3.626,0,0,0,4.907-.019,3.227,3.227,0,0,0,.986-2.4,3.152,3.152,0,0,0-.986-2.356A3.347,3.347,0,0,0,279.271,435.588Z" stroke="none"/>
        <path d="M 279.2211303710938 434.3880004882812 C 277.8591918945312 434.3880004882812 276.7323608398438 434.8189086914062 275.8406982421875 435.681884765625 C 274.9501953125 436.5437622070312 274.5050048828125 437.633544921875 274.5050048828125 438.9501342773438 C 274.5050048828125 440.232177734375 274.9466552734375 441.3004760742188 275.8323364257812 442.151611328125 C 276.7168579101562 443.0038452148438 277.8233642578125 443.4300537109375 279.1519165039062 443.4300537109375 C 280.5425415039062 443.4300537109375 281.6956176757812 443.0038452148438 282.6099853515625 442.151611328125 C 283.5243530273438 441.3004760742188 283.9815063476562 440.2250366210938 283.9815063476562 438.9251098632812 C 283.9815063476562 437.6251831054688 283.5291137695312 436.5437622070312 282.6218872070312 435.681884765625 C 281.7171020507812 434.8189086914062 280.5831298828125 434.3880004882812 279.2211303710938 434.3880004882812 M 279.2343139648438 442.2685546875 C 278.2542724609375 442.2685546875 277.4390258789062 441.9534301757812 276.7884521484375 441.3219604492188 C 276.13671875 440.6917724609375 275.8108520507812 439.9003295898438 275.8108520507812 438.9501342773438 C 275.8108520507812 437.9701538085938 276.1355590820312 437.1644287109375 276.784912109375 436.5330200195312 C 277.4342651367188 435.9027709960938 278.2626953125 435.587646484375 279.2713012695312 435.587646484375 C 280.2297973632812 435.587646484375 281.0367431640625 435.9051513671875 281.6956176757812 436.5437622070312 C 282.3521728515625 437.179931640625 282.681640625 437.9653930664062 282.681640625 438.9000244140625 C 282.681640625 439.8585815429688 282.3521728515625 440.6607055664062 281.6956176757812 441.3029174804688 C 281.0367431640625 441.947509765625 280.2166748046875 442.2685546875 279.2343139648438 442.2685546875 M 279.2211303710938 433.8565063476562 C 280.7187805175781 433.8565063476562 281.9863891601562 434.3412475585938 282.9887390136719 435.2973022460938 C 283.9999084472656 436.2579040527344 284.5130004882812 437.4787292480469 284.5130004882812 438.9251098632812 C 284.5130004882812 440.3724670410156 283.9945678710938 441.5888977050781 282.9721069335938 442.5406494140625 C 281.9606018066406 443.4833984375 280.6752319335938 443.9615478515625 279.1519165039062 443.9615478515625 C 277.6874084472656 443.9615478515625 276.4464416503906 443.4813842773438 275.4635620117188 442.5343322753906 C 274.4750061035156 441.5843505859375 273.9735107421875 440.3782958984375 273.9735107421875 438.9501342773438 C 273.9735107421875 437.4898376464844 274.4773559570312 436.2617492675781 275.4710693359375 435.2999877929688 C 276.4607238769531 434.3421630859375 277.722412109375 433.8565063476562 279.2211303710938 433.8565063476562 Z M 279.2343139648438 441.737060546875 C 280.0805053710938 441.737060546875 280.7640075683594 441.4707641601562 281.3239440917969 440.9230041503906 C 281.8798828125 440.3791809082031 282.150146484375 439.7174682617188 282.150146484375 438.9000244140625 C 282.150146484375 438.1088256835938 281.8804931640625 437.4629516601562 281.3257751464844 436.9254760742188 C 280.7659606933594 436.3828735351562 280.0939636230469 436.119140625 279.2713012695312 436.119140625 C 278.3986511230469 436.119140625 277.7064208984375 436.3792724609375 277.1550903320312 436.9143981933594 C 276.6083068847656 437.4460754394531 276.3423461914062 438.1120910644531 276.3423461914062 438.9501342773438 C 276.3423461914062 439.7583923339844 276.609130859375 440.4092407226562 277.1578979492188 440.9398803710938 C 277.7108154296875 441.4765319824219 278.3897705078125 441.737060546875 279.2343139648438 441.737060546875 Z" stroke="none" fill="#fff"/>
      </g>
      <g id="パス_939" data-name="パス 939" transform="translate(3.698 0.021)" fill="none">
        <path d="M284.742,443.308v-8.814h2.208a3.184,3.184,0,0,1,2.122.663c.525.442.762.7.787,1.155a2.122,2.122,0,0,1-.386,1.331,2.293,2.293,0,0,1-1.1.839,2.547,2.547,0,0,1,.827.757c.211.338.7,1.256,1.206,2.258.307.5.483.927.667,1.181l.468.63h-1.5l-.384-.581c-.013-.02-.6-1.173-.6-1.173a10.64,10.64,0,0,0-1.253-2.114,2.733,2.733,0,0,0-.588-.463,1.986,1.986,0,0,0-.881-.141H286v4.473Zm1.64-7.741H286v2.145h.48a3.576,3.576,0,0,0,1.315-.164,1.724,1.724,0,0,0,.555-.5.827.827,0,0,0-.021-.87,1.179,1.179,0,0,0-.622-.476A4.471,4.471,0,0,0,286.382,435.567Z" stroke="none"/>
        <path d="M 291.5375366210938 443.3080444335938 L 291.0696105957031 442.6777954101562 C 290.8858032226562 442.4247436523438 290.7091064453125 441.9973754882812 290.40234375 441.4972534179688 C 289.8974304199219 440.4945678710938 289.4080200195312 439.57666015625 289.1967468261719 439.2388305664062 C 288.9759216308594 438.88427734375 288.6512451171875 438.6670532226562 288.3695373535156 438.4820556640625 C 288.8493957519531 438.2969970703125 289.2182312011719 438.0165405273438 289.4736633300781 437.6428833007812 C 289.7302856445312 437.26806640625 289.8854675292969 436.8240356445312 289.8592224121094 436.3119506835938 C 289.8341674804688 435.857177734375 289.5978088378906 435.59814453125 289.0726013183594 435.156494140625 C 288.5497741699219 434.7147827148438 287.8419189453125 434.4939575195312 286.9502563476562 434.4939575195312 L 284.7419738769531 434.4939575195312 L 284.7419738769531 443.3080444335938 L 286.0036926269531 443.3080444335938 L 286.0036926269531 438.8353881835938 L 286.3319396972656 438.8353881835938 C 286.7449645996094 438.8353881835938 287.03857421875 438.8819580078125 287.212890625 438.9761962890625 C 287.3883666992188 439.0717163085938 287.5840759277344 439.2244873046875 287.8013305664062 439.4393310546875 C 288.3122253417969 439.9454956054688 289.0547180175781 441.5533447265625 289.0547180175781 441.5533447265625 C 289.0547180175781 441.5533447265625 289.6383972167969 442.7064208984375 289.6515502929688 442.7266845703125 L 290.035888671875 443.3080444335938 L 291.5375366210938 443.3080444335938 M 286.0036926269531 435.567138671875 L 286.382080078125 435.567138671875 C 287.0003967285156 435.567138671875 287.4432373046875 435.6124877929688 287.7106323242188 435.70556640625 C 287.9779968261719 435.7974853515625 288.1857299804688 435.9574584960938 288.33251953125 436.1818237304688 C 288.4793395996094 436.4074096679688 288.537841796875 436.8443603515625 288.35400390625 437.052001953125 C 288.1845092773438 437.24658203125 288.0364990234375 437.4387817382812 287.7989807128906 437.548583984375 C 287.5614318847656 437.6572265625 287.1233520507812 437.7120971679688 286.4835205078125 437.7120971679688 L 286.0036926269531 437.7120971679688 L 286.0036926269531 435.567138671875 M 292.5941162109375 443.8395385742188 L 289.7501220703125 443.8395385742188 L 289.2081909179688 443.0198059082031 C 289.1854553222656 442.9848022460938 289.1770629882812 442.9718933105469 288.5805053710938 441.7933959960938 L 288.5722351074219 441.7762451171875 C 288.3003540039062 441.1879272460938 287.7491455078125 440.1358032226562 287.42724609375 439.81689453125 C 287.2499389648438 439.6415710449219 287.0922241210938 439.5156555175781 286.9587707519531 439.4430236816406 C 286.9476928710938 439.4370422363281 286.8464660644531 439.3875122070312 286.5351867675781 439.3717041015625 L 286.5351867675781 443.8395385742188 L 284.2104797363281 443.8395385742188 L 284.2104797363281 433.9624633789062 L 286.9502563476562 433.9624633789062 C 287.9672241210938 433.9624633789062 288.7966918945312 434.2276000976562 289.4156188964844 434.75048828125 C 289.9615783691406 435.2096252441406 290.3516845703125 435.5887756347656 290.3899230957031 436.28271484375 C 290.42041015625 436.8777160644531 290.2596740722656 437.4356994628906 289.9122009277344 437.9431457519531 C 289.7523498535156 438.177001953125 289.5571594238281 438.381591796875 289.3282470703125 438.5556945800781 C 289.4423217773438 438.6709289550781 289.5517272949219 438.8034362792969 289.6478881835938 438.9578552246094 C 289.8636474609375 439.3028259277344 290.3529357910156 440.2180786132812 290.8671875 441.2386169433594 C 291.0188293457031 441.4874267578125 291.1369934082031 441.712646484375 291.2415466308594 441.9119262695312 C 291.3404541015625 442.1004333496094 291.4259643554688 442.2633972167969 291.4981079101562 442.3633422851562 L 292.5941162109375 443.8395385742188 Z M 286.5351867675781 436.0997009277344 L 286.5351867675781 437.1804809570312 C 287.2761840820312 437.1766662597656 287.5200805664062 437.0917053222656 287.5779113769531 437.0652465820312 C 287.6779479980469 437.0189819335938 287.7643127441406 436.9222412109375 287.8967590332031 436.7682800292969 C 287.909423828125 436.7535400390625 287.9221496582031 436.7387390136719 287.9349975585938 436.7239074707031 C 287.9458923339844 436.6640319824219 287.9250793457031 436.5301818847656 287.8870544433594 436.4717407226562 C 287.8046264648438 436.3457641601562 287.6934509277344 436.2616882324219 287.537841796875 436.2081909179688 C 287.427734375 436.1698608398438 287.1572570800781 436.1084289550781 286.5351867675781 436.0997009277344 Z" stroke="none" fill="#fff"/>
      </g>
      <g id="パス_940" data-name="パス 940" transform="translate(5.249 0.021)" fill="none">
        <path d="M292.75,434.494h5v1.123h-3.735v2.095h2.645v1.129h-2.645v3.332h3.854V443.3H292.75Z" stroke="none"/>
        <path d="M 292.75 434.4939575195312 L 292.75 443.296142578125 L 297.8660583496094 443.296142578125 L 297.8660583496094 442.1728515625 L 294.01171875 442.1728515625 L 294.01171875 438.84130859375 L 296.6568908691406 438.84130859375 L 296.6568908691406 437.7120971679688 L 294.01171875 437.7120971679688 L 294.01171875 435.6172485351562 L 297.7467041015625 435.6172485351562 L 297.7467041015625 434.4939575195312 L 292.75 434.4939575195312 M 292.218505859375 433.9624633789062 L 298.2781982421875 433.9624633789062 L 298.2781982421875 436.1487426757812 L 294.543212890625 436.1487426757812 L 294.543212890625 437.1806030273438 L 297.1883850097656 437.1806030273438 L 297.1883850097656 439.372802734375 L 294.543212890625 439.372802734375 L 294.543212890625 441.641357421875 L 298.3975524902344 441.641357421875 L 298.3975524902344 443.82763671875 L 292.218505859375 443.82763671875 L 292.218505859375 433.9624633789062 Z" stroke="none" fill="#fff"/>
      </g>
      <path id="パス_941" data-name="パス 941" d="M373.621,434.494h5v1.123h-3.735v2.095h2.645v1.129h-2.645v3.332h3.855V443.3h-5.117Z" transform="translate(20.911 0.021)" fill="#fff"/>
      <g id="パス_942" data-name="パス 942" transform="translate(6.589 0.021)" fill="none">
        <path d="M299.673,443.3v-8.8h2.971a6.274,6.274,0,0,1,2.846.54,4.062,4.062,0,0,1,1.665,1.586,4.406,4.406,0,0,1,.618,2.285,4.316,4.316,0,0,1-1.312,3.109,4.255,4.255,0,0,1-1.5.954,4.46,4.46,0,0,1-.914.261,12.211,12.211,0,0,1-1.591.067Zm2.839-7.679h-1.577v6.556h1.615a6.478,6.478,0,0,0,1.471-.13,3.386,3.386,0,0,0,.873-.328,2.939,2.939,0,0,0,.641-.488,3.27,3.27,0,0,0,.935-2.392,3.027,3.027,0,0,0-.96-2.315,3.082,3.082,0,0,0-.811-.549,3.4,3.4,0,0,0-.868-.284A8.805,8.805,0,0,0,302.512,435.617Z" stroke="none"/>
        <path d="M 302.4601745605469 443.296142578125 C 303.2444458007812 443.296142578125 303.7732238769531 443.2734375 304.0513610839844 443.229248046875 C 304.3282775878906 443.18505859375 304.6338806152344 443.0979614257812 304.9656982421875 442.9678344726562 C 305.5338745117188 442.7529907226562 306.0328369140625 442.4354858398438 306.4613342285156 442.0140991210938 C 306.8815307617188 441.6070556640625 307.2050170898438 441.1331787109375 307.4330139160156 440.5948486328125 C 307.6598205566406 440.0564575195312 307.7732238769531 439.4931030273438 307.7732238769531 438.9046020507812 C 307.7732238769531 438.0797729492188 307.56787109375 437.3181762695312 307.1548767089844 436.6199340820312 C 306.7430725097656 435.921630859375 306.1880187988281 435.392822265625 305.4897155761719 435.0335693359375 C 304.7914123535156 434.6742553710938 303.8436279296875 434.4939575195312 302.6439819335938 434.4939575195312 L 299.6729736328125 434.4939575195312 L 299.6729736328125 443.296142578125 L 302.4601745605469 443.296142578125 M 300.9346923828125 435.6172485351562 L 302.5115051269531 435.6172485351562 C 303.1167297363281 435.6172485351562 303.5571594238281 435.6399536132812 303.8305358886719 435.6864624023438 C 304.1038818359375 435.7330322265625 304.3927612304688 435.8273315429688 304.6983032226562 435.9705200195312 C 305.002685546875 436.1138305664062 305.2724914550781 436.2964477539062 305.5088195800781 436.5196533203125 C 306.1473999023438 437.1165161132812 306.468505859375 437.8887939453125 306.468505859375 438.8341674804688 C 306.468505859375 439.7974853515625 306.1557922363281 440.5948486328125 305.5338745117188 441.2262573242188 C 305.3404846191406 441.4196166992188 305.1268310546875 441.5831909179688 304.8928527832031 441.7144775390625 C 304.6601257324219 441.8482055664062 304.3688659667969 441.956787109375 304.0203247070312 442.042724609375 C 303.6705627441406 442.1287231445312 303.1799621582031 442.1728515625 302.5497131347656 442.1728515625 L 300.9346923828125 442.1728515625 L 300.9346923828125 435.6172485351562 M 302.4601745605469 443.82763671875 L 299.1414794921875 443.82763671875 L 299.1414794921875 433.9624633789062 L 302.6439819335938 433.9624633789062 C 303.9218139648438 433.9624633789062 304.9610595703125 434.163818359375 305.7328796386719 434.5609741210938 C 306.5185241699219 434.9651489257812 307.1510009765625 435.5670471191406 307.6127014160156 436.3499450683594 C 308.07177734375 437.1260986328125 308.3047180175781 437.9858093261719 308.3047180175781 438.9046020507812 C 308.3047180175781 439.5615539550781 308.1762390136719 440.1996459960938 307.9228210449219 440.8011779785156 C 307.6667175292969 441.4059143066406 307.2995300292969 441.9421081542969 306.8311462402344 442.3958435058594 C 306.3561401367188 442.8629760742188 305.7917785644531 443.2232360839844 305.1565551757812 443.4638671875 C 304.792724609375 443.6063537597656 304.4490661621094 443.7040100097656 304.1351318359375 443.7540893554688 C 303.8235778808594 443.8035888671875 303.2758178710938 443.82763671875 302.4601745605469 443.82763671875 Z M 301.4661865234375 441.641357421875 L 302.5497131347656 441.641357421875 C 303.1316528320312 441.641357421875 303.583740234375 441.6027526855469 303.8934020996094 441.526611328125 C 304.1950378417969 441.4522399902344 304.4423217773438 441.3603820800781 304.6280517578125 441.253662109375 L 304.6327819824219 441.2509765625 C 304.8213195800781 441.1451721191406 304.9980773925781 441.0104064941406 305.1580810546875 440.8504028320312 C 305.6812744140625 440.3192138671875 305.93701171875 439.6587524414062 305.93701171875 438.8341674804688 C 305.93701171875 438.0355834960938 305.67822265625 437.405517578125 305.1459045410156 436.9079284667969 C 304.9501342773438 436.7230834960938 304.7240600585938 436.5700988769531 304.4718933105469 436.4513854980469 C 304.2130126953125 436.3300476074219 303.9669189453125 436.2488403320312 303.7412719726562 436.2104187011719 C 303.5008239746094 436.1694946289062 303.0870361328125 436.1487426757812 302.5115051269531 436.1487426757812 L 301.4661865234375 436.1487426757812 L 301.4661865234375 441.641357421875 Z" stroke="none" fill="#fff"/>
      </g>
      <g id="パス_943" data-name="パス 943" transform="translate(8.283)" fill="none">
        <path d="M313.136,434.388a4.735,4.735,0,0,1,3.4,1.294,4.286,4.286,0,0,1,1.36,3.243,4.219,4.219,0,0,1-1.372,3.227,4.874,4.874,0,0,1-3.458,1.278,4.594,4.594,0,0,1-3.32-1.278,4.256,4.256,0,0,1-1.327-3.2,4.356,4.356,0,0,1,1.336-3.268A4.663,4.663,0,0,1,313.136,434.388Zm.05,1.2a3.422,3.422,0,0,0-2.486.945,3.226,3.226,0,0,0-.974,2.417,3.163,3.163,0,0,0,.978,2.372,3.626,3.626,0,0,0,4.907-.019,3.227,3.227,0,0,0,.986-2.4,3.152,3.152,0,0,0-.986-2.356A3.349,3.349,0,0,0,313.186,435.588Z" stroke="none"/>
        <path d="M 313.1361694335938 434.3880004882812 C 311.7742004394531 434.3880004882812 310.6473693847656 434.8189086914062 309.7557067871094 435.681884765625 C 308.865234375 436.5437622070312 308.4200134277344 437.633544921875 308.4200134277344 438.9501342773438 C 308.4200134277344 440.232177734375 308.8616638183594 441.3004760742188 309.7473449707031 442.151611328125 C 310.6318664550781 443.0038452148438 311.7384033203125 443.4300537109375 313.0669250488281 443.4300537109375 C 314.4575500488281 443.4300537109375 315.6106262207031 443.0038452148438 316.5249938964844 442.151611328125 C 317.4393615722656 441.3004760742188 317.8965148925781 440.2250366210938 317.8965148925781 438.9251098632812 C 317.8965148925781 437.6251831054688 317.4441223144531 436.5437622070312 316.5369262695312 435.681884765625 C 315.6321411132812 434.8189086914062 314.4969177246094 434.3880004882812 313.1361694335938 434.3880004882812 M 313.1492919921875 442.2685546875 C 312.1693115234375 442.2685546875 311.35400390625 441.9534301757812 310.7034912109375 441.3219604492188 C 310.0517272949219 440.6917724609375 309.7258605957031 439.9003295898438 309.7258605957031 438.9501342773438 C 309.7258605957031 437.9701538085938 310.050537109375 437.1644287109375 310.6998596191406 436.5330200195312 C 311.3492431640625 435.9027709960938 312.1776428222656 435.587646484375 313.186279296875 435.587646484375 C 314.1436157226562 435.587646484375 314.9517211914062 435.9051513671875 315.6106262207031 436.5437622070312 C 316.2671508789062 437.179931640625 316.5965881347656 437.9653930664062 316.5965881347656 438.9000244140625 C 316.5965881347656 439.8585815429688 316.2671508789062 440.6607055664062 315.6106262207031 441.3029174804688 C 314.9517211914062 441.947509765625 314.1316833496094 442.2685546875 313.1492919921875 442.2685546875 M 313.1361694335938 433.8565063476562 C 314.6338195800781 433.8565063476562 315.9014282226562 434.3412475585938 316.9037780761719 435.2973022460938 C 317.9149169921875 436.2579345703125 318.4280090332031 437.478759765625 318.4280090332031 438.9251098632812 C 318.4280090332031 440.3724670410156 317.9095764160156 441.5888977050781 316.8871154785156 442.5406494140625 C 315.8756103515625 443.4833984375 314.5902404785156 443.9615478515625 313.0669250488281 443.9615478515625 C 311.6024169921875 443.9615478515625 310.3614501953125 443.4813842773438 309.3785705566406 442.5343322753906 C 308.3900146484375 441.5843505859375 307.8885192871094 440.3782958984375 307.8885192871094 438.9501342773438 C 307.8885192871094 437.4898681640625 308.3923645019531 436.2617797851562 309.3860778808594 435.2999877929688 C 310.375732421875 434.3421630859375 311.637451171875 433.8565063476562 313.1361694335938 433.8565063476562 Z M 313.1492919921875 441.737060546875 C 313.9954528808594 441.737060546875 314.6790161132812 441.4707641601562 315.2389526367188 440.9229736328125 C 315.7948608398438 440.3792114257812 316.0650939941406 439.7174987792969 316.0650939941406 438.9000244140625 C 316.0650939941406 438.1088256835938 315.7954406738281 437.4629516601562 315.2407531738281 436.9254760742188 C 314.6809692382812 436.3828735351562 314.0089416503906 436.119140625 313.186279296875 436.119140625 C 312.3136291503906 436.119140625 311.6213989257812 436.3792724609375 311.0700378417969 436.9144287109375 C 310.5233154296875 437.446044921875 310.2573547363281 438.112060546875 310.2573547363281 438.9501342773438 C 310.2573547363281 439.7583923339844 310.5241394042969 440.4092407226562 311.0729370117188 440.9398498535156 C 311.6257934570312 441.4765319824219 312.3047485351562 441.737060546875 313.1492919921875 441.737060546875 Z" stroke="none" fill="#fff"/>
      </g>
      <path id="パス_944" data-name="パス 944" d="M328.547,434.494h1.179v8.814h-1.269V436.45l-2.708,2.975h-.234l-2.742-2.975v6.858h-1.262v-8.814h1.195l2.928,3.188Z" transform="translate(10.819 0.021)" fill="#fff"/>
      <path id="パス_945" data-name="パス 945" d="M342.886,438.332h2.959v4.389a8.064,8.064,0,0,1-3.231.707,4.794,4.794,0,0,1-3.5-1.278A4.228,4.228,0,0,1,337.806,439a4.379,4.379,0,0,1,1.357-3.286,4.689,4.689,0,0,1,3.4-1.313,6.019,6.019,0,0,1,1.413.161,11.372,11.372,0,0,1,1.69.59v1.287a6.2,6.2,0,0,0-3.13-.914,3.322,3.322,0,0,0-2.435.984,3.489,3.489,0,0,0,0,4.871,3.527,3.527,0,0,0,2.55.953,5.928,5.928,0,0,0,1.81-.347l.122-.037v-2.49h-1.7Z" transform="translate(13.975 0.002)" fill="#fff"/>
      <path id="パス_946" data-name="パス 946" d="M353.848,434.484h7.6l-5.629,7.7h5.629v1.123h-7.955l5.639-7.7h-5.28Z" transform="translate(17.012 0.019)" fill="#fff"/>
      <path id="パス_947" data-name="パス 947" d="M361.607,434.494h1.262v8.814h-1.262Z" transform="translate(18.584 0.021)" fill="#fff"/>
      <path id="パス_948" data-name="パス 948" d="M371.733,434.494h1.2v8.814h-1.084l-5.893-6.788v6.788h-1.186v-8.814h1.023l5.942,6.846Z" transform="translate(19.196 0.021)" fill="#fff"/>
      <g id="グループ_292" data-name="グループ 292" transform="translate(341.99 434.464)">
        <path id="パス_949" data-name="パス 949" d="M335.244,439.581l-1.423-3.193-1.318,3.193L332,440.7l-1.1,2.612h-1.3l3.785-8.864h.888l3.951,8.864h-1.292l-1.173-2.612Z" transform="translate(-329.604 -434.452)" fill="#fff"/>
        <rect id="長方形_84" data-name="長方形 84" width="3.844" height="1.07" transform="translate(2.39 3.922)" fill="#fff"/>
      </g>
      <g id="グループ_293" data-name="グループ 293" transform="translate(361.207 434.464)">
        <path id="パス_950" data-name="パス 950" d="M351.343,439.581l-1.423-3.193-1.319,3.193-.5,1.123-1.1,2.612h-1.3l3.785-8.864h.888l3.951,8.864h-1.292l-1.175-2.612Z" transform="translate(-345.703 -434.452)" fill="#fff"/>
        <rect id="長方形_85" data-name="長方形 85" width="3.844" height="1.07" transform="translate(2.39 3.922)" fill="#fff"/>
      </g>
    </g>
  </g>
</svg>
