<svg id="グループ_298" data-name="グループ 298" xmlns="http://www.w3.org/2000/svg" width="123.492" height="42.02" viewBox="0 0 123.492 42.02">
  <path id="パス_968" data-name="パス 968" d="M226.529,710.3l-.282-.283a.086.086,0,0,0-.127.019s-.18.179-.18.179l-3.076,0V708.5h2.142a2.241,2.241,0,0,0,.258-.1l.238-.239a.085.085,0,0,0,0-.113v0l-.3-.3-.05,0-.059.038-.179.18-2.051,0V706.9a.078.078,0,0,0-.054-.085l-.633-.108-.014.043.017.056,0,.068,0,1.073-2.4-.006-.092-.043-.051.1.2.45a.081.081,0,0,0,.084.047h2.254v1.707l-3.742-.006a.23.23,0,0,1-.086-.009l-.079-.03.023.1.213.47.072.031h7.452a1.9,1.9,0,0,0,.253-.114c.011-.006.058-.053.239-.233a.085.085,0,0,0,0-.117Zm-6.824-2.322,0,0,.011.005Zm-1.344,2.258v0l.008.005Zm3.839-.027h0c0-.027,0-.061,0-.1Z" transform="translate(-166.992 -669.109)" fill="#fff"/>
  <path id="パス_969" data-name="パス 969" d="M236.585,701.473l-.569-.1-.006.12v.134h-2.742v-.047a.106.106,0,0,0-.079-.109l-.567-.1-.007.119,0,.068,0,7.7.033.234a.3.3,0,0,0,.321.244.394.394,0,0,0,.228-.17s.068-.205.068-.205v-.379h2.745v.277l.032.234a.3.3,0,0,0,.321.244.4.4,0,0,0,.23-.17s.068-.2.068-.2l0-7.471v-.315A.1.1,0,0,0,236.585,701.473Zm-2.3,6.968h-1.024V705.4h1.024Zm-1.024-3.588,0-2.675h1.02v2.675Zm2.745,3.588h-1.068V705.4h1.068Zm0-3.588h-1.068v-2.675h1.068Z" transform="translate(-168.14 -668.682)" fill="#fff"/>
  <path id="パス_970" data-name="パス 970" d="M219.259,705.773l-.093-.04-.052.1.2.449c0,.015.025.051.084.051h5.56a3.883,3.883,0,0,1,.215.5l.049.149.176-.081c.01-.006.289-.219.289-.219a.4.4,0,0,0,.014-.13,3.725,3.725,0,0,0-1.227-1.531l-.088-.062-.027.034-.046.053-.171.207.081.076a4.366,4.366,0,0,1,.378.441h-3.073l.867-1.263h2.492a2.37,2.37,0,0,0,.255-.108l.239-.236a.085.085,0,0,0,0-.117v-.006l-.3-.3-.049,0-.06.039c0-.007-.181.179-.181.179l-4.85-.009-.027.052.2.453a.089.089,0,0,0,.084.05h1.5l-.867,1.263Zm.73-1.789,0,0,.015.005Z" transform="translate(-167.059 -668.872)" fill="#fff"/>
  <path id="パス_971" data-name="パス 971" d="M218.979,702.074l0,1.461.035.268a.315.315,0,0,0,.328.255.431.431,0,0,0,.236-.185s.073-.217.073-.217l0-.9h5.874l0,.9.013.074.021.066a.315.315,0,0,0,.329.255c.129-.019.232-.179.237-.185s.073-.217.073-.217l0-1.186V702.1a.079.079,0,0,0-.055-.084l-.623-.108-.016.047.02.054,0,.066v.124H222.92v-.992a.08.08,0,0,0-.054-.086l-.633-.109-.014.048.017.052,0,.068,0,1.019h-2.579v-.1a.079.079,0,0,0-.054-.084l-.625-.108-.015.047.019.054A.593.593,0,0,0,218.979,702.074Z" transform="translate(-167.047 -668.653)" fill="#fff"/>
  <path id="パス_972" data-name="パス 972" d="M226.985,710.992h0S226.983,711,226.985,710.992Z" transform="translate(-167.689 -669.452)" fill="#fff"/>
  <path id="パス_973" data-name="パス 973" d="M241.051,702.094l0-.013c-.017-.021-.072-.077-.282-.293a.1.1,0,0,0-.141.018l-.18.18-3-.015c-.027.015-.086-.012-.086-.012l-.1-.04.038.123.217.469.077.03h1.644v6.686a3.119,3.119,0,0,0-.6-.545l-.091-.057-.027.027-.043.052-.175.208.082.077a3.992,3.992,0,0,1,.858,1.286c.01.071.026.194.026.194a.322.322,0,0,0,.343.259.441.441,0,0,0,.243-.182c-.006,0,.07-.212.07-.212l0-7.658v-.137h.617c.028,0,.259-.109.259-.109l.235-.237a.1.1,0,0,0,.028-.066A.075.075,0,0,0,241.051,702.094Z" transform="translate(-168.512 -668.713)" fill="#fff"/>
  <path id="パス_974" data-name="パス 974" d="M266.359,693.124H185.945v.662l21.271.086c2.741.053,3.876.377,3.878,1.364h1.395c0-.913.969-1.259,3.29-1.348h20.547c2.266.086,3.245.418,3.293,1.285v.063h1.392v-.006c.007-.981,1.143-1.3,3.872-1.359l21.476-.086Z" transform="translate(-164.404 -668.021)" fill="#fff"/>
  <path id="パス_975" data-name="パス 975" d="M234.281,667.776V673.8h10.232v1.305H234.283V683H244.7v1.315H232.893V666.478H244.7v1.3Z" transform="translate(-168.162 -665.888)" fill="#fff"/>
  <path id="パス_976" data-name="パス 976" d="M254.746,682.964V667.628h4.462a7.73,7.73,0,0,1,5.863,13.234,7.69,7.69,0,0,1-5.863,2.1Zm-1.4,1.34h5.815c2.686,0,4.826-.478,6.811-2.389a9.3,9.3,0,0,0-.1-13.358c-1.992-1.84-4.079-2.27-6.716-2.27h-5.815Z" transform="translate(-169.8 -665.873)" fill="#fff"/>
  <path id="パス_977" data-name="パス 977" d="M285.7,667.168a8,8,0,1,1-8.027,8.005A8.1,8.1,0,0,1,285.7,667.168Zm0-1.331a9.336,9.336,0,1,0,9.426,9.336A9.458,9.458,0,0,0,285.7,665.837Z" transform="translate(-171.635 -665.837)" fill="#fff"/>
  <path id="パス_978" data-name="パス 978" d="M195.307,665.956a9.294,9.294,0,1,0,9.388,9.292A9.418,9.418,0,0,0,195.307,665.956Zm0,17.28a7.983,7.983,0,1,1,8.007-7.988A8.063,8.063,0,0,1,195.307,683.235Z" transform="translate(-164.401 -665.846)" fill="#fff"/>
  <path id="パス_979" data-name="パス 979" d="M195.9,673.322a2.518,2.518,0,1,0,2.516,2.515A2.516,2.516,0,0,0,195.9,673.322Z" transform="translate(-164.999 -666.436)" fill="#fff"/>
  <path id="パス_980" data-name="パス 980" d="M178.067,670.149a8.449,8.449,0,0,0-6.1-3.011,8.293,8.293,0,0,0-8.056,8.156,7.685,7.685,0,0,0,2.3,5.423,8.489,8.489,0,0,0,5.754,2.482,8.755,8.755,0,0,0,6.1-2.867v1.908a9.444,9.444,0,0,1-6.055,2.268,9.337,9.337,0,1,1,.023-18.672,9,9,0,0,1,6.032,2.363Z" transform="translate(-162.529 -665.837)" fill="#fff"/>
  <path id="パス_981" data-name="パス 981" d="M214.664,674.241v-6.764h3.3a6.354,6.354,0,0,1,2.812.375,3.159,3.159,0,0,1,1.817,3,3.292,3.292,0,0,1-1.2,2.623,4.368,4.368,0,0,1-3,.771Zm3.24,1.306h.9c2.986.041,5.158-1.578,5.158-4.715a4.246,4.246,0,0,0-1.822-3.72,6.488,6.488,0,0,0-4.062-.912h-4.791v18.138h1.385v-8.791h1.5l7.226,8.791h1.761Z" transform="translate(-166.593 -665.866)" fill="#fff"/>
</svg>
