<svg id="グループ_299" data-name="グループ 299" xmlns="http://www.w3.org/2000/svg" width="123.492" height="41.817" viewBox="0 0 123.492 41.817">
  <path id="パス_982" data-name="パス 982" d="M266.585,693.274H186.171v.662l21.271.086c2.741.053,3.877.377,3.878,1.364h1.394c0-.913.97-1.259,3.291-1.348h20.547c2.266.086,3.246.418,3.293,1.285v.063h1.392v-.006c.007-.982,1.143-1.3,3.871-1.359l21.477-.086Z" transform="translate(-164.63 -668.171)" fill="#fff"/>
  <path id="パス_983" data-name="パス 983" d="M234.507,667.926v6.025H244.74v1.305H234.509v7.9H244.93v1.316H233.118V666.628H244.93v1.3Z" transform="translate(-168.388 -666.038)" fill="#fff"/>
  <path id="パス_984" data-name="パス 984" d="M254.971,683.114V667.778h4.461a7.73,7.73,0,0,1,5.863,13.234,7.69,7.69,0,0,1-5.863,2.1Zm-1.4,1.34h5.816c2.685,0,4.826-.477,6.81-2.389a9.3,9.3,0,0,0-.1-13.358c-1.992-1.84-4.079-2.269-6.715-2.269h-5.816Z" transform="translate(-170.026 -666.023)" fill="#fff"/>
  <path id="パス_985" data-name="パス 985" d="M285.926,667.318a8,8,0,1,1-8.026,8.005A8.1,8.1,0,0,1,285.926,667.318Zm0-1.331a9.336,9.336,0,1,0,9.427,9.336A9.458,9.458,0,0,0,285.926,665.987Z" transform="translate(-171.86 -665.987)" fill="#fff"/>
  <path id="パス_986" data-name="パス 986" d="M195.533,666.105a9.294,9.294,0,1,0,9.388,9.292A9.418,9.418,0,0,0,195.533,666.105Zm0,17.279a7.983,7.983,0,1,1,8.007-7.987A8.063,8.063,0,0,1,195.533,683.384Z" transform="translate(-164.627 -665.996)" fill="#fff"/>
  <path id="パス_987" data-name="パス 987" d="M196.131,673.471a2.518,2.518,0,1,0,2.516,2.516A2.516,2.516,0,0,0,196.131,673.471Z" transform="translate(-165.225 -666.586)" fill="#fff"/>
  <path id="パス_988" data-name="パス 988" d="M178.292,670.3a8.447,8.447,0,0,0-6.1-3.011,8.293,8.293,0,0,0-8.055,8.156,7.687,7.687,0,0,0,2.3,5.424,8.492,8.492,0,0,0,5.754,2.481,8.752,8.752,0,0,0,6.1-2.866v1.907a9.436,9.436,0,0,1-6.055,2.27,9.337,9.337,0,1,1,.024-18.672,9,9,0,0,1,6.031,2.362Z" transform="translate(-162.755 -665.987)" fill="#fff"/>
  <path id="パス_989" data-name="パス 989" d="M214.889,674.39v-6.764h3.3A6.352,6.352,0,0,1,221,668a3.16,3.16,0,0,1,1.817,3,3.3,3.3,0,0,1-1.2,2.624,4.365,4.365,0,0,1-2.994.77Zm3.24,1.305h.9c2.986.042,5.158-1.578,5.158-4.715a4.247,4.247,0,0,0-1.823-3.72,6.487,6.487,0,0,0-4.062-.912h-4.79v18.137H214.9V675.7H216.4l7.226,8.791h1.761Z" transform="translate(-166.819 -666.016)" fill="#fff"/>
  <path id="パス_990" data-name="パス 990" d="M219.313,701.744l-.637-.1c-.021,0-.029.007-.024.022a.35.35,0,0,1,.015.048v.421h-4.319V701.8c0-.054-.033-.061-.033-.061l-.635-.1c-.021,0-.034.007-.027.022a.247.247,0,0,1,.015.048l0,8.358a1.491,1.491,0,0,0,.033.249.306.306,0,0,0,.315.228.445.445,0,0,0,.261-.161.311.311,0,0,0,.067-.206v-.218h4.323v.108a1.134,1.134,0,0,0,.034.249.3.3,0,0,0,.313.228.453.453,0,0,0,.261-.161.3.3,0,0,0,.066-.206l0-8.376C219.348,701.75,219.313,701.744,219.313,701.744Zm-.646.916,0,2.917h-4.323V702.66Zm-4.32,6.78V706.1h4.323v3.339Z" transform="translate(-166.83 -668.841)" fill="#fff"/>
  <path id="パス_991" data-name="パス 991" d="M245.779,706.938l-.641-.1c-.014,0-.034-.011-.021.022a.138.138,0,0,0,.011.042v.2h-3.35V707a.059.059,0,0,0-.045-.064l-.637-.1c-.017,0-.036-.011-.028.022s.011.034.013.042l0,3.66a1.225,1.225,0,0,0,.038.258.3.3,0,0,0,.308.232.468.468,0,0,0,.275-.169.425.425,0,0,0,.07-.208l0-3.037h3.35v2.924a1.337,1.337,0,0,0,.036.258.312.312,0,0,0,.32.232.425.425,0,0,0,.266-.169.356.356,0,0,0,.068-.208l.006-3.672A.06.06,0,0,0,245.779,706.938Z" transform="translate(-169.024 -669.257)" fill="#fff"/>
  <path id="パス_992" data-name="パス 992" d="M246.327,705.206a5.094,5.094,0,0,1-1.927-1.324h.9a.292.292,0,0,0,.2-.089l.226-.219c.02-.025.018-.045,0-.062l-.27-.341a.046.046,0,0,0-.071.015l-.176.171h-1.823a6.968,6.968,0,0,0,.355-.779,4.1,4.1,0,0,0,.4-.135c.664-.259.788-.333.868-.423a.086.086,0,0,0,.017-.081l-.214-.667c-.007-.012-.014-.029-.034-.01a.35.35,0,0,0-.029.044,9.142,9.142,0,0,1-1.319.76,9.626,9.626,0,0,1-1.788.66s-.205.058-.287.079c-.05.014,0,.076.077.072a11.7,11.7,0,0,0,1.581-.141,6.763,6.763,0,0,1-.3.622h-1.43l-.036-.01c-.031-.006-.019.009-.014.019l.19.491s0,.028.044.028h.932a4.762,4.762,0,0,1-1.474,1.534c-.031.017-.046.03-.063.04s-.025.032-.009.041.039.02.088,0a3.74,3.74,0,0,0,1.258-.684v1.167a.991.991,0,0,0,.033.215.266.266,0,0,0,.27.19.315.315,0,0,0,.225-.138.406.406,0,0,0,.053-.173v-.121h1.3v.027a1.139,1.139,0,0,0,.027.215.306.306,0,0,0,.307.19c.1-.008.192-.139.192-.139a.338.338,0,0,0,.055-.172l0-1.258a4.653,4.653,0,0,0,.823.684c.068.048.081-.025.081-.025a3.8,3.8,0,0,0,.744-.177C246.384,705.231,246.327,705.206,246.327,705.206Zm-3.546.3,0-.525h1.3v.525Zm1.3-1.21c-.011-.006-.026-.008-.015.016s.008.026.01.036v.18h-1.3v-.1c0-.047-.029-.054-.029-.054l-.082-.012a5.243,5.243,0,0,0,.39-.489h.847c.1.159.212.305.311.437Z" transform="translate(-169.007 -668.81)" fill="#fff"/>
  <path id="パス_993" data-name="パス 993" d="M244.6,708.243l-.519-.085c-.014,0-.028-.011-.019.016a.125.125,0,0,0,.009.04l0,.2h-1.007V708.3a.052.052,0,0,0-.036-.054l-.521-.085c-.015,0-.029-.011-.02.016a.112.112,0,0,0,.013.04l0,1.753a1.081,1.081,0,0,0,.026.216.259.259,0,0,0,.257.2.283.283,0,0,0,.217-.144.324.324,0,0,0,.06-.176v-.039h1.017a.682.682,0,0,0,.023.159.255.255,0,0,0,.252.2.337.337,0,0,0,.222-.144.324.324,0,0,0,.057-.176l0-1.458V708.3A.052.052,0,0,0,244.6,708.243Zm-1.534.63h1.01v.687h-1.012Z" transform="translate(-169.138 -669.363)" fill="#fff"/>
  <path id="パス_994" data-name="パス 994" d="M240.264,703.122a.042.042,0,0,0-.065.01l-.18.176h-.632v-2.018c0-.057-.038-.063-.038-.063l-.633-.1c-.023,0-.031,0-.024.019a.34.34,0,0,0,.013.049v2.114h-1.345a.207.207,0,0,0-.037-.015c-.03,0-.021.011-.018.02l.189.491s.006.027.051.027h.944a9.712,9.712,0,0,1-1.213,4.428,2.461,2.461,0,0,1-.133.231.131.131,0,0,0-.02.058c0,.039.033.062.164-.064a5.491,5.491,0,0,0,1.419-2.549l0,4.172a1.283,1.283,0,0,0,.034.248.3.3,0,0,0,.316.231.488.488,0,0,0,.257-.159.287.287,0,0,0,.066-.21l0-5.385a5.226,5.226,0,0,1,.395,1.4c.041.392.3.45.44.443s.49-.17.123-1.066a2.254,2.254,0,0,0-.955-1.125v-.648h.724a.312.312,0,0,0,.193-.092l.227-.219a.04.04,0,0,0,.006-.06Z" transform="translate(-168.709 -668.8)" fill="#fff"/>
  <path id="パス_995" data-name="パス 995" d="M233.146,708.126a8.108,8.108,0,0,1-4.154-4.822h2.774a.291.291,0,0,0,.191-.091h.005l.224-.227v0a.04.04,0,0,0,0-.057v0l-.267-.339a.05.05,0,0,0-.067.013l-.178.176h-2.955v-1.481c0-.052-.036-.06-.036-.06l-.634-.1c-.022,0-.029.005-.024.025a.169.169,0,0,0,.017.043v1.571h-3.214l-.056,0a.066.066,0,0,0-.033-.012c-.033-.009-.019.01-.019.016l.194.5s.007.028.051.028h2.674a8.989,8.989,0,0,1-3.373,5.19.818.818,0,0,1-.124.079.062.062,0,0,0-.019.064c.01.023.041.073.156.03a7.862,7.862,0,0,0,3.764-4.3v4.095h-1.717a.084.084,0,0,0-.034-.012c-.032-.006-.017.012-.016.018l.194.5s.007.028.051.028h.145v0h1.376v1.144a1.174,1.174,0,0,0,.034.247.3.3,0,0,0,.313.228.433.433,0,0,0,.258-.158.324.324,0,0,0,.072-.206V709h1.307v0l.012,0h.011a.287.287,0,0,0,.194-.088h0l.228-.223v0c.02-.026.015-.047,0-.06l-.267-.34a.052.052,0,0,0-.07.01l-.171.177h-1.246V703.99a8.873,8.873,0,0,0,3.62,4.534c.083.028.086-.029.086-.029a3.994,3.994,0,0,0,.712-.271C233.213,708.143,233.146,708.126,233.146,708.126Z" transform="translate(-167.668 -668.801)" fill="#fff"/>
</svg>
