<svg xmlns="http://www.w3.org/2000/svg" width="31" height="31" viewBox="0 0 31 31">
  <g id="グループ_195" data-name="グループ 195" transform="translate(-2.5 -2.5)">
    <path id="パス_760" data-name="パス 760" d="M11.581,2.607a11.335,11.335,0,0,0-3.76.728A7.582,7.582,0,0,0,5.079,5.128,7.6,7.6,0,0,0,3.3,7.876a11.386,11.386,0,0,0-.713,3.764c-.072,1.653-.089,2.181-.081,6.39s.027,4.737.105,6.391a11.363,11.363,0,0,0,.728,3.76,7.588,7.588,0,0,0,1.793,2.742A7.6,7.6,0,0,0,7.877,32.7a11.376,11.376,0,0,0,3.763.713c1.653.073,2.181.089,6.389.081s4.738-.027,6.391-.1a11.392,11.392,0,0,0,3.76-.728A7.92,7.92,0,0,0,32.7,28.124a11.35,11.35,0,0,0,.713-3.762c.072-1.654.089-2.183.081-6.391s-.027-4.736-.105-6.389a11.368,11.368,0,0,0-.728-3.761,7.6,7.6,0,0,0-1.792-2.742A7.586,7.586,0,0,0,28.124,3.3a11.34,11.34,0,0,0-3.763-.713c-1.653-.073-2.181-.089-6.39-.081s-4.736.026-6.389.105m.181,28.02A8.6,8.6,0,0,1,8.883,30.1a5.131,5.131,0,0,1-2.947-2.936A8.585,8.585,0,0,1,5.4,24.287c-.077-1.634-.094-2.124-.1-6.262s.007-4.628.078-6.263A8.582,8.582,0,0,1,5.9,8.883,5.13,5.13,0,0,1,8.837,5.936,8.576,8.576,0,0,1,11.713,5.4c1.635-.077,2.124-.094,6.262-.1s4.629.007,6.264.078a8.561,8.561,0,0,1,2.878.527,5.132,5.132,0,0,1,2.948,2.937,8.555,8.555,0,0,1,.538,2.876c.078,1.635.1,2.125.1,6.262s-.007,4.629-.079,6.263a8.593,8.593,0,0,1-.527,2.88,5.134,5.134,0,0,1-2.937,2.947,8.583,8.583,0,0,1-2.876.539c-1.635.077-2.124.094-6.263.1s-4.627-.008-6.262-.078M24.4,9.715a1.86,1.86,0,1,0,1.856-1.863A1.86,1.86,0,0,0,24.4,9.715m-14.356,8.3a7.959,7.959,0,1,0,7.943-7.974,7.958,7.958,0,0,0-7.943,7.974m2.792-.006a5.167,5.167,0,1,1,5.176,5.157,5.167,5.167,0,0,1-5.176-5.157"/>
  </g>
</svg>
