<svg xmlns="http://www.w3.org/2000/svg" width="106.414" height="106.693" viewBox="0 0 106.414 106.693">
  <g id="グループ_317" data-name="グループ 317" transform="translate(-141.111 -453.566)">
    <g id="グループ_312" data-name="グループ 312" transform="translate(141.111 453.566)">
      <path id="パス_1012" data-name="パス 1012" d="M141.111,453.566v3.449H193.73v58.252H141.111v3.449H197.18V453.566Z" transform="translate(-141.111 -453.566)" fill="#fff"/>
      <path id="パス_1013" data-name="パス 1013" d="M210.389,453.685l-56.166,48.643V466.1h-3.45v43.779l61.7-53.432.178-.154Z" transform="translate(-129.06 -453.418)" fill="#fff"/>
      <path id="パス_1014" data-name="パス 1014" d="M206.653,486.178H177.328v-24.7h-3.45v45.877h3.45V489.627h29.325Z" transform="translate(-100.24 -443.697)" fill="#fff"/>
      <circle id="楕円形_24" data-name="楕円形 24" cx="3.34" cy="3.34" r="3.34" transform="translate(88.604 25.932)" fill="#fff"/>
      <circle id="楕円形_25" data-name="楕円形 25" cx="3.34" cy="3.34" r="3.34" transform="translate(99.498 25.932)" fill="#fff"/>
    </g>
    <g id="グループ_316" data-name="グループ 316" transform="translate(156.134 531.662)">
      <path id="パス_1015" data-name="パス 1015" d="M154.334,488.96a9.848,9.848,0,0,1,3.827.9v1.681a7.533,7.533,0,0,0-3.749-1.094,4.334,4.334,0,0,0-3.119,1.187,4.186,4.186,0,0,0-.02,5.929,4.352,4.352,0,0,0,3.124,1.157,7.076,7.076,0,0,0,3.881-1.22v1.722a8.151,8.151,0,0,1-3.973.939,6.129,6.129,0,0,1-3.108-.735,5.416,5.416,0,0,1-2.02-2.027,5.5,5.5,0,0,1-.744-2.8,5.331,5.331,0,0,1,1.7-4.014,5.839,5.839,0,0,1,4.2-1.629m0-.636a6.476,6.476,0,0,0-4.639,1.8,5.969,5.969,0,0,0-1.9,4.474,6.168,6.168,0,0,0,.827,3.113,6.063,6.063,0,0,0,2.254,2.261,6.765,6.765,0,0,0,3.427.823,8.835,8.835,0,0,0,4.279-1.018l.333-.182v-3.268l-.982.634a6.5,6.5,0,0,1-3.537,1.119,3.707,3.707,0,0,1-2.686-.984,3.546,3.546,0,0,1,.023-5,3.681,3.681,0,0,1,2.679-1.011,6.963,6.963,0,0,1,3.434,1.011l.953.546v-3.2l-.387-.166a10.509,10.509,0,0,0-4.079-.951Z" transform="translate(-147.796 -488.306)" fill="#fff"/>
      <path id="パス_1016" data-name="パス 1016" d="M160.119,488.954a5.88,5.88,0,0,1,4.221,1.6,5.323,5.323,0,0,1,1.686,4.023,5.235,5.235,0,0,1-1.7,4,6.051,6.051,0,0,1-4.29,1.584,5.706,5.706,0,0,1-4.119-1.584,5.289,5.289,0,0,1-1.645-3.973,5.4,5.4,0,0,1,1.656-4.054,5.786,5.786,0,0,1,4.194-1.6m.016,9.776a4.189,4.189,0,0,0,3.054-1.2,4,4,0,0,0,1.223-2.982,3.9,3.9,0,0,0-1.223-2.922,4.158,4.158,0,0,0-3.007-1.187,4.248,4.248,0,0,0-3.086,1.173,4,4,0,0,0-1.209,3,3.925,3.925,0,0,0,1.214,2.944,4.184,4.184,0,0,0,3.034,1.173m-.016-10.414a6.431,6.431,0,0,0-4.636,1.784,6.044,6.044,0,0,0-1.852,4.513,5.917,5.917,0,0,0,1.843,4.432,6.336,6.336,0,0,0,4.56,1.764,6.689,6.689,0,0,0,4.724-1.757,5.87,5.87,0,0,0,1.906-4.47,5.954,5.954,0,0,0-1.886-4.484,6.516,6.516,0,0,0-4.659-1.782Zm.016,9.778a3.542,3.542,0,0,1-2.591-1,3.284,3.284,0,0,1-1.018-2.486,3.356,3.356,0,0,1,1.016-2.539,3.593,3.593,0,0,1,2.641-1,3.518,3.518,0,0,1,2.564,1.007,3.273,3.273,0,0,1,1.029,2.465,3.363,3.363,0,0,1-1.032,2.528,3.552,3.552,0,0,1-2.609,1.016Z" transform="translate(-140.518 -488.316)" fill="#fff"/>
      <path id="パス_1017" data-name="パス 1017" d="M163.753,489.024a3.96,3.96,0,0,1,2.634.82c.652.548.946.87.975,1.434a2.622,2.622,0,0,1-.479,1.652,2.828,2.828,0,0,1-1.369,1.041,3.168,3.168,0,0,1,1.027.939c.261.42.867,1.557,1.495,2.8.38.62.6,1.151.829,1.463l.58.782H167.58l-.476-.719c-.016-.027-.739-1.456-.739-1.456a13.181,13.181,0,0,0-1.555-2.623,3.333,3.333,0,0,0-.73-.575,2.458,2.458,0,0,0-1.092-.175h-.407v5.549h-1.566V489.024h2.74m-1.173,3.991h.6a4.443,4.443,0,0,0,1.632-.2,2.167,2.167,0,0,0,.688-.616,1.027,1.027,0,0,0-.027-1.079,1.463,1.463,0,0,0-.771-.593,5.572,5.572,0,0,0-1.647-.171h-.47v2.661m1.173-4.63h-3.376V500.6h2.838v-5.544a1.418,1.418,0,0,1,.562.094,2.731,2.731,0,0,1,.584.465,12.034,12.034,0,0,1,1.425,2.436c.746,1.479.757,1.5.78,1.531l.483.733.189.286h3.47l-.753-1.016-.58-.784a4.624,4.624,0,0,1-.319-.562c-.133-.254-.285-.544-.479-.854-.616-1.229-1.227-2.375-1.5-2.807a2.888,2.888,0,0,0-.411-.512,3.21,3.21,0,0,0,.739-.771,3.245,3.245,0,0,0,.589-2.045,2.56,2.56,0,0,0-1.2-1.885,4.584,4.584,0,0,0-3.045-.973Zm-.537,3.994v-1.387a4.408,4.408,0,0,1,1.272.135.829.829,0,0,1,.447.339.564.564,0,0,1,.056.348,1.658,1.658,0,0,1-.452.418,3.678,3.678,0,0,1-1.324.146Z" transform="translate(-132.103 -488.229)" fill="#fff"/>
      <path id="パス_1018" data-name="パス 1018" d="M172.489,489.024v1.393h-4.634v2.6h3.283v1.4h-3.283v4.133h4.782v1.393h-6.347v-10.92h6.2m.638-.638h-7.475V500.58h7.623v-2.668h-4.782v-2.859h3.281V492.38h-3.281v-1.326h4.634v-2.668Z" transform="translate(-125.522 -488.229)" fill="#fff"/>
      <path id="パス_1019" data-name="パス 1019" d="M174.539,489.024a7.769,7.769,0,0,1,3.531.67,5.016,5.016,0,0,1,2.065,1.969,5.458,5.458,0,0,1,.769,2.832,5.346,5.346,0,0,1-1.629,3.859,5.22,5.22,0,0,1-1.854,1.182,5.5,5.5,0,0,1-1.135.326,15.346,15.346,0,0,1-1.973.083h-3.459v-10.92h3.686m-2.122,9.526h2a7.965,7.965,0,0,0,1.825-.162,4.271,4.271,0,0,0,1.083-.407,3.747,3.747,0,0,0,.8-.607,4.052,4.052,0,0,0,1.157-2.966,3.761,3.761,0,0,0-1.189-2.872,3.857,3.857,0,0,0-1.007-.681,4.231,4.231,0,0,0-1.076-.353,11.154,11.154,0,0,0-1.636-.085h-1.957v8.133m2.122-10.165h-4.324V500.58h4.1a15.489,15.489,0,0,0,2.074-.09,6.247,6.247,0,0,0,1.265-.362,6.036,6.036,0,0,0,3.416-3.288,6,6,0,0,0,.472-2.346,6.123,6.123,0,0,0-.856-3.158,5.665,5.665,0,0,0-2.324-2.209,8.4,8.4,0,0,0-3.821-.742Zm-1.483,2.668h1.319a9.858,9.858,0,0,1,1.53.079,3.57,3.57,0,0,1,.912.3,3.178,3.178,0,0,1,.838.566,3.12,3.12,0,0,1,.991,2.409,3.409,3.409,0,0,1-.975,2.519,3.052,3.052,0,0,1-.656.5,3.6,3.6,0,0,1-.921.344,7.468,7.468,0,0,1-1.672.142h-1.366v-6.859Z" transform="translate(-119.831 -488.229)" fill="#fff"/>
      <path id="パス_1020" data-name="パス 1020" d="M182.467,488.954a5.88,5.88,0,0,1,4.221,1.6,5.323,5.323,0,0,1,1.686,4.023,5.235,5.235,0,0,1-1.7,4,6.051,6.051,0,0,1-4.29,1.584,5.7,5.7,0,0,1-4.117-1.584,5.283,5.283,0,0,1-1.647-3.973,5.407,5.407,0,0,1,1.656-4.054,5.786,5.786,0,0,1,4.194-1.6m.016,9.776a4.185,4.185,0,0,0,3.054-1.2,4,4,0,0,0,1.225-2.982,3.906,3.906,0,0,0-1.225-2.922,4.154,4.154,0,0,0-3.007-1.187,4.248,4.248,0,0,0-3.086,1.173,4,4,0,0,0-1.209,3,3.925,3.925,0,0,0,1.214,2.944,4.184,4.184,0,0,0,3.034,1.173m-.016-10.414a6.435,6.435,0,0,0-4.636,1.784,6.044,6.044,0,0,0-1.852,4.513,5.917,5.917,0,0,0,1.843,4.432,6.336,6.336,0,0,0,4.56,1.764,6.689,6.689,0,0,0,4.724-1.757,5.87,5.87,0,0,0,1.906-4.47,5.954,5.954,0,0,0-1.886-4.484,6.516,6.516,0,0,0-4.659-1.782Zm.016,9.778a3.545,3.545,0,0,1-2.591-1,3.284,3.284,0,0,1-1.018-2.486,3.356,3.356,0,0,1,1.016-2.539,3.593,3.593,0,0,1,2.641-1,3.518,3.518,0,0,1,2.564,1.007,3.273,3.273,0,0,1,1.029,2.465,3.363,3.363,0,0,1-1.032,2.528,3.552,3.552,0,0,1-2.609,1.016Z" transform="translate(-112.642 -488.316)" fill="#fff"/>
      <g id="グループ_315" data-name="グループ 315" transform="translate(1.634 18.828)">
        <path id="パス_1021" data-name="パス 1021" d="M178.476,496.748h5.409v1.216h-4.043v2.268h2.863v1.223h-2.863v3.6h4.171v1.216h-5.538Z" transform="translate(-111.161 -496.627)" fill="#fff"/>
        <path id="パス_1022" data-name="パス 1022" d="M156.137,496.748h1.277v9.54h-1.371v-7.423l-2.933,3.22h-.254l-2.967-3.22v7.423h-1.366v-9.54h1.294l3.169,3.45Z" transform="translate(-148.523 -496.627)" fill="#fff"/>
        <path id="パス_1023" data-name="パス 1023" d="M163.387,500.951h3.2V505.7a8.731,8.731,0,0,1-3.5.764,5.193,5.193,0,0,1-3.787-1.382,4.579,4.579,0,0,1-1.416-3.411,4.734,4.734,0,0,1,1.468-3.555,5.073,5.073,0,0,1,3.681-1.42,6.475,6.475,0,0,1,1.528.173,12.241,12.241,0,0,1,1.829.638V498.9a6.7,6.7,0,0,0-3.387-.991,3.593,3.593,0,0,0-2.634,1.065,3.771,3.771,0,0,0,0,5.272,3.812,3.812,0,0,0,2.758,1.032,6.4,6.4,0,0,0,1.96-.378l.13-.041v-2.692h-1.836Z" transform="translate(-136.839 -496.694)" fill="#fff"/>
        <path id="パス_1024" data-name="パス 1024" d="M167.293,496.742h8.221l-6.093,8.338h6.093V506.3H166.9l6.1-8.338h-5.713Z" transform="translate(-125.595 -496.634)" fill="#fff"/>
        <path id="パス_1025" data-name="パス 1025" d="M171.57,496.748h1.366v9.54H171.57Z" transform="translate(-119.775 -496.627)" fill="#fff"/>
        <path id="パス_1026" data-name="パス 1026" d="M180.927,496.748h1.3v9.54h-1.173l-6.378-7.347v7.347h-1.285v-9.54h1.108l6.432,7.41Z" transform="translate(-117.509 -496.627)" fill="#fff"/>
        <g id="グループ_313" data-name="グループ 313" transform="translate(10.455 0.067)">
          <path id="パス_1027" data-name="パス 1027" d="M159.279,502.275l-1.539-3.454-1.427,3.454-.542,1.216-1.193,2.827h-1.4l4.1-9.594h.96l4.277,9.594h-1.4l-1.27-2.827Z" transform="translate(-153.175 -496.724)" fill="#fff"/>
          <rect id="長方形_94" data-name="長方形 94" width="4.16" height="1.158" transform="translate(2.586 4.245)" fill="#fff"/>
        </g>
        <g id="グループ_314" data-name="グループ 314" transform="translate(31.252 0.067)">
          <path id="パス_1028" data-name="パス 1028" d="M168.531,502.275l-1.537-3.454-1.427,3.454-.542,1.216-1.193,2.827h-1.4l4.095-9.594h.962l4.277,9.594h-1.4l-1.272-2.827Z" transform="translate(-162.429 -496.724)" fill="#fff"/>
          <rect id="長方形_95" data-name="長方形 95" width="4.16" height="1.158" transform="translate(2.586 4.245)" fill="#fff"/>
        </g>
      </g>
    </g>
  </g>
</svg>
