<svg xmlns="http://www.w3.org/2000/svg" width="171.475" height="58.347" viewBox="0 0 171.475 58.347">
  <g id="グループ_291" data-name="グループ 291" transform="translate(-162.529 -665.837)">
    <path id="パス_923" data-name="パス 923" d="M229.738,711.69l-.392-.392a.12.12,0,0,0-.176.027c0-.006-.25.248-.25.248l-4.272-.005V709.2h2.974a3.113,3.113,0,0,0,.358-.146l.331-.332a.118.118,0,0,0,0-.157v0l-.418-.423-.069.005-.082.052c.008-.006-.249.25-.249.25l-2.847,0v-1.46a.108.108,0,0,0-.075-.118l-.879-.149-.019.06.024.078-.005.094.005,1.489-3.33-.008-.128-.06-.072.139.284.625a.112.112,0,0,0,.116.065h3.13v2.37l-5.2-.008a.322.322,0,0,1-.119-.013l-.11-.042.032.138.3.653.1.043h10.348a2.629,2.629,0,0,0,.351-.158c.015-.009.08-.074.332-.323a.119.119,0,0,0,.006-.162Zm-9.476-3.224,0,0,.015.008ZM218.4,711.6v0l.012.008Zm5.331-.037h-.006c0-.037,0-.084.006-.134Z" transform="translate(15.463 11.338)" fill="#fff"/>
    <path id="パス_924" data-name="パス 924" d="M238.129,701.512l-.789-.137-.009.167v.187h-3.808v-.065a.147.147,0,0,0-.11-.152l-.787-.137-.01.165,0,.094,0,10.7.046.325a.414.414,0,0,0,.446.338.547.547,0,0,0,.317-.236c-.006,0,.095-.285.095-.285v-.526h3.812v.384l.045.325a.414.414,0,0,0,.446.338.56.56,0,0,0,.319-.236c-.006,0,.095-.282.095-.282l0-10.374v-.437A.145.145,0,0,0,238.129,701.512Zm-3.188,9.675h-1.422v-4.221h1.422Zm-1.422-4.982,0-3.715h1.417V706.2Zm3.812,4.982h-1.483v-4.221h1.483Zm0-4.982h-1.483V702.49h1.483Z" transform="translate(19.44 9.858)" fill="#fff"/>
    <path id="パス_925" data-name="パス 925" d="M219.316,706.562l-.129-.055-.072.138.284.623c0,.02.034.07.116.07h7.721a5.373,5.373,0,0,1,.3.7l.068.207.244-.112c.014-.008.4-.3.4-.3a.56.56,0,0,0,.019-.18,5.172,5.172,0,0,0-1.7-2.126l-.123-.087-.037.047-.064.074-.238.287.112.1a6.057,6.057,0,0,1,.525.613h-4.266l1.2-1.754h3.46a3.285,3.285,0,0,0,.354-.149l.332-.327a.118.118,0,0,0,.006-.162v-.008l-.419-.419-.068.005-.083.055c.005-.01-.252.248-.252.248l-6.734-.013-.037.072.28.63a.123.123,0,0,0,.116.069h2.077l-1.2,1.754Zm1.013-2.485,0-.005.02.008Z" transform="translate(15.696 10.515)" fill="#fff"/>
    <path id="パス_926" data-name="パス 926" d="M218.984,702.488l.005,2.028.049.372a.438.438,0,0,0,.456.354.6.6,0,0,0,.328-.257c-.005,0,.1-.3.1-.3l0-1.243h8.156l0,1.253.018.1.029.092a.438.438,0,0,0,.457.354c.179-.027.322-.249.33-.257-.008,0,.1-.3.1-.3l0-1.647v-.515a.11.11,0,0,0-.077-.116l-.865-.151-.022.065.028.075-.006.092v.172h-3.625v-1.377a.112.112,0,0,0-.075-.12l-.879-.152-.019.066.024.073-.005.094.005,1.415h-3.581v-.138a.11.11,0,0,0-.075-.116l-.867-.151-.02.065.027.075A.818.818,0,0,0,218.984,702.488Z" transform="translate(15.654 9.757)" fill="#fff"/>
    <path id="パス_927" data-name="パス 927" d="M226.986,710.992h0C226.981,711,226.983,711,226.986,710.992Z" transform="translate(17.879 12.526)" fill="#fff"/>
    <path id="パス_928" data-name="パス 928" d="M242.525,702.221l-.005-.018c-.023-.029-.1-.107-.392-.406a.136.136,0,0,0-.2.024l-.25.25-4.162-.02c-.037.02-.119-.017-.119-.017l-.143-.055.052.171.3.651.107.042H240v9.284a4.339,4.339,0,0,0-.83-.756l-.126-.079-.037.037-.06.073-.243.289.114.107a5.546,5.546,0,0,1,1.192,1.786c.014.1.036.27.036.27a.448.448,0,0,0,.476.36.614.614,0,0,0,.337-.253c-.008,0,.1-.294.1-.294l0-10.633v-.19h.857c.038-.005.36-.152.36-.152l.326-.33a.133.133,0,0,0,.038-.092A.105.105,0,0,0,242.525,702.221Z" transform="translate(20.729 9.966)" fill="#fff"/>
    <path id="パス_929" data-name="パス 929" d="M297.6,693.124H185.945v.92l29.536.12c3.807.074,5.382.524,5.385,1.894H222.8c0-1.267,1.345-1.749,4.568-1.871H255.9c3.146.12,4.505.58,4.573,1.785v.087h1.933v-.008c.01-1.363,1.587-1.811,5.377-1.887l29.821-.12Z" transform="translate(6.495 7.569)" fill="#fff"/>
    <path id="パス_930" data-name="パス 930" d="M234.82,668.28v8.366h14.208v1.813H234.823v10.966h14.471v1.827h-16.4V666.478h16.4v1.8Z" transform="translate(19.518 0.178)" fill="#fff"/>
    <path id="パス_931" data-name="パス 931" d="M255.288,689.443V668.149h6.2c3.024,0,5.532.54,7.852,2.625a10.917,10.917,0,0,1,.289,15.751c-2.317,2.28-4.958,2.917-8.141,2.917Zm-1.939,1.861h8.074c3.73,0,6.7-.664,9.458-3.317a12.91,12.91,0,0,0-.133-18.548c-2.766-2.555-5.664-3.151-9.325-3.151h-8.074Z" transform="translate(25.192 0.125)" fill="#fff"/>
    <path id="パス_932" data-name="パス 932" d="M289.367,667.685A11.115,11.115,0,1,1,278.221,678.8,11.242,11.242,0,0,1,289.367,667.685Zm0-1.849A12.964,12.964,0,1,0,302.455,678.8,13.133,13.133,0,0,0,289.367,665.837Z" transform="translate(31.549 0)" fill="#fff"/>
    <path id="パス_933" data-name="パス 933" d="M198.956,665.956a12.9,12.9,0,1,0,13.036,12.9A13.077,13.077,0,0,0,198.956,665.956Zm0,23.993a11.085,11.085,0,1,1,11.118-11.092A11.2,11.2,0,0,1,198.956,689.949Z" transform="translate(6.487 0.033)" fill="#fff"/>
    <path id="パス_934" data-name="パス 934" d="M196.883,673.322a3.5,3.5,0,1,0,3.494,3.492A3.493,3.493,0,0,0,196.883,673.322Z" transform="translate(8.56 2.076)" fill="#fff"/>
    <path id="パス_935" data-name="パス 935" d="M184.1,671.824a11.732,11.732,0,0,0-8.477-4.181,11.515,11.515,0,0,0-11.186,11.325,10.672,10.672,0,0,0,3.2,7.53,11.787,11.787,0,0,0,7.99,3.446,12.156,12.156,0,0,0,8.477-3.98v2.649a13.113,13.113,0,0,1-8.408,3.15,12.965,12.965,0,1,1,.032-25.927,12.5,12.5,0,0,1,8.376,3.282Z" transform="translate(0 0)" fill="#fff"/>
    <path id="パス_936" data-name="パス 936" d="M215.2,677.366v-9.393h4.577a8.823,8.823,0,0,1,3.9.521,4.387,4.387,0,0,1,2.523,4.159,4.571,4.571,0,0,1-1.672,3.642,6.064,6.064,0,0,1-4.159,1.07Zm4.5,1.813h1.253c4.146.057,7.162-2.191,7.162-6.547a5.9,5.9,0,0,0-2.531-5.166c-1.7-1.228-3.609-1.266-5.641-1.266h-6.653v25.185h1.924V679.178h2.077l10.034,12.207h2.445Z" transform="translate(14.08 0.101)" fill="#fff"/>
  </g>
</svg>
