<svg xmlns="http://www.w3.org/2000/svg" width="139.999" height="140.367" viewBox="0 0 139.999 140.367">
  <g id="グループ_1720" data-name="グループ 1720" transform="translate(-517.897 -265.452)">
    <g id="グループ_1715" data-name="グループ 1715" transform="translate(517.897 265.452)">
      <path id="パス_3374" data-name="パス 3374" d="M517.9,265.452v4.537h69.225v76.636H517.9v4.537h73.764V265.452Z" transform="translate(-517.897 -265.452)" fill="#fff"/>
      <path id="パス_3375" data-name="パス 3375" d="M605.99,265.571,532.1,329.565V281.9h-4.539v57.6l81.17-70.3.234-.2Z" transform="translate(-498.993 -265.219)" fill="#fff"/>
      <path id="パス_3376" data-name="パス 3376" d="M593.783,305.86H555.2v-32.5h-4.539v62.318H555.2V310.4h38.58Z" transform="translate(-453.784 -249.971)" fill="#fff"/>
      <circle id="楕円形_6112" data-name="楕円形 6112" cx="4.394" cy="4.394" r="4.394" transform="translate(116.569 34.116)" fill="#fff"/>
      <circle id="楕円形_6113" data-name="楕円形 6113" cx="4.394" cy="4.394" r="4.394" transform="translate(130.9 34.116)" fill="#fff"/>
    </g>
    <g id="グループ_1719" data-name="グループ 1719" transform="translate(537.659 368.196)">
      <path id="パス_3377" data-name="パス 3377" d="M533.182,301.049a12.961,12.961,0,0,1,5.038,1.183v2.215A9.916,9.916,0,0,0,533.288,303a5.692,5.692,0,0,0-4.1,1.561,5.188,5.188,0,0,0-1.635,3.909,5.128,5.128,0,0,0,1.608,3.894,5.73,5.73,0,0,0,4.107,1.523,9.326,9.326,0,0,0,5.109-1.605v2.265a10.732,10.732,0,0,1-5.23,1.236,8.071,8.071,0,0,1-4.089-.967,7.155,7.155,0,0,1-2.658-2.67,7.251,7.251,0,0,1-.976-3.675,7.022,7.022,0,0,1,2.238-5.284,7.685,7.685,0,0,1,5.523-2.141m0-.84a8.526,8.526,0,0,0-6.1,2.377,7.864,7.864,0,0,0-2.5,5.887,8.1,8.1,0,0,0,1.091,4.1,7.975,7.975,0,0,0,2.965,2.974,8.925,8.925,0,0,0,4.506,1.079,11.643,11.643,0,0,0,5.632-1.336l.435-.24v-4.3l-1.292.831a8.523,8.523,0,0,1-4.654,1.475,4.883,4.883,0,0,1-3.53-1.3,4.669,4.669,0,0,1,.03-6.587,4.85,4.85,0,0,1,3.524-1.328,9.128,9.128,0,0,1,4.515,1.331l1.254.716v-4.21l-.509-.216a13.822,13.822,0,0,0-5.366-1.253Z" transform="translate(-524.581 -300.188)" fill="#fff"/>
      <path id="パス_3378" data-name="パス 3378" d="M538.953,301.042a7.729,7.729,0,0,1,5.55,2.111,7,7,0,0,1,2.22,5.292,6.9,6.9,0,0,1-2.238,5.269,7.972,7.972,0,0,1-5.647,2.084,7.5,7.5,0,0,1-5.417-2.084,6.95,6.95,0,0,1-2.167-5.227,7.105,7.105,0,0,1,2.182-5.334,7.612,7.612,0,0,1,5.517-2.111m.021,12.861a5.5,5.5,0,0,0,4.015-1.576A5.265,5.265,0,0,0,544.6,308.4a5.15,5.15,0,0,0-1.611-3.847A5.462,5.462,0,0,0,539.033,303a5.582,5.582,0,0,0-4.057,1.543,5.255,5.255,0,0,0-1.591,3.944,5.169,5.169,0,0,0,1.6,3.873,5.5,5.5,0,0,0,3.991,1.543m-.021-13.7a8.448,8.448,0,0,0-6.1,2.348,7.947,7.947,0,0,0-2.436,5.937,7.779,7.779,0,0,0,2.425,5.831,8.339,8.339,0,0,0,6,2.318,8.813,8.813,0,0,0,6.218-2.309,7.73,7.73,0,0,0,2.5-5.881,7.848,7.848,0,0,0-2.478-5.9,8.588,8.588,0,0,0-6.129-2.342Zm.021,12.864a4.654,4.654,0,0,1-3.409-1.31,4.323,4.323,0,0,1-1.343-3.27,4.422,4.422,0,0,1,1.336-3.344,4.748,4.748,0,0,1,3.474-1.307,4.623,4.623,0,0,1,3.373,1.325,4.3,4.3,0,0,1,1.357,3.243,4.421,4.421,0,0,1-1.36,3.323,4.657,4.657,0,0,1-3.43,1.339Z" transform="translate(-513.162 -300.202)" fill="#fff"/>
      <path id="パス_3379" data-name="パス 3379" d="M541.606,301.109a5.2,5.2,0,0,1,3.465,1.082c.854.721,1.242,1.144,1.28,1.886a3.439,3.439,0,0,1-.627,2.17,3.733,3.733,0,0,1-1.8,1.372,4.138,4.138,0,0,1,1.351,1.236c.346.55,1.144,2.049,1.966,3.687.5.816.789,1.514,1.091,1.925l.763,1.029h-2.451l-.627-.949c-.021-.033-.976-1.916-.976-1.916A17.439,17.439,0,0,0,543,309.183a4.366,4.366,0,0,0-.961-.757,3.242,3.242,0,0,0-1.437-.231h-.538v7.3H538V301.109h3.6m-1.546,5.254h.783a5.754,5.754,0,0,0,2.146-.269,2.819,2.819,0,0,0,.908-.807,1.356,1.356,0,0,0-.036-1.422,1.927,1.927,0,0,0-1.017-.778,7.333,7.333,0,0,0-2.167-.225h-.618v3.5m1.546-6.091h-4.444v16.064H540.9v-7.294a1.936,1.936,0,0,1,.736.121,3.6,3.6,0,0,1,.769.615,15.554,15.554,0,0,1,1.875,3.205c.984,1.945,1,1.969,1.026,2.014l.636.964.249.375h4.568L549.766,315,549,313.967a6.74,6.74,0,0,1-.423-.739c-.174-.334-.376-.716-.627-1.126-.81-1.614-1.617-3.122-1.969-3.69a3.831,3.831,0,0,0-.541-.677,4.389,4.389,0,0,0,1.744-3.7,3.378,3.378,0,0,0-1.579-2.484,6.026,6.026,0,0,0-4-1.277Zm-.706,5.251V303.7a5.823,5.823,0,0,1,1.673.177,1.1,1.1,0,0,1,.588.443.748.748,0,0,1,.074.458,2.242,2.242,0,0,1-.594.553,4.824,4.824,0,0,1-1.741.189Z" transform="translate(-499.964 -300.065)" fill="#fff"/>
      <path id="パス_3380" data-name="パス 3380" d="M551.433,301.109v1.836h-6.1v3.418h4.317v1.845h-4.317v5.434h6.292v1.833h-8.353V301.109h8.157m.837-.837h-9.831v16.043h10.026v-3.51h-6.292v-3.761h4.32v-3.521h-4.32v-1.741h6.1v-3.51Z" transform="translate(-489.639 -300.065)" fill="#fff"/>
      <path id="パス_3381" data-name="パス 3381" d="M552.69,301.109a10.238,10.238,0,0,1,4.642.881,6.644,6.644,0,0,1,2.72,2.59,7.193,7.193,0,0,1,1.008,3.728,7.114,7.114,0,0,1-.553,2.762,7.129,7.129,0,0,1-4.03,3.87,7.4,7.4,0,0,1-1.49.429,20.351,20.351,0,0,1-2.6.106h-4.55V301.109h4.852M549.9,313.642h2.634a10.649,10.649,0,0,0,2.4-.21,5.691,5.691,0,0,0,1.425-.535,4.863,4.863,0,0,0,1.047-.8,5.327,5.327,0,0,0,1.526-3.9,5,5,0,0,0-2.889-4.674,5.511,5.511,0,0,0-1.419-.464,14.2,14.2,0,0,0-2.152-.112H549.9v10.7m2.791-13.37H547v16.043h5.387a20.329,20.329,0,0,0,2.729-.118,8.253,8.253,0,0,0,1.668-.476,7.99,7.99,0,0,0,4.494-4.326,7.951,7.951,0,0,0,.621-3.087,8.056,8.056,0,0,0-1.126-4.154,7.514,7.514,0,0,0-3.057-2.909,11.1,11.1,0,0,0-5.026-.973Zm-1.954,3.51h1.736a13.563,13.563,0,0,1,2.013.1,4.661,4.661,0,0,1,1.2.4,4.211,4.211,0,0,1,1.106.748,4.109,4.109,0,0,1,1.3,3.17,4.486,4.486,0,0,1-1.283,3.314,4.1,4.1,0,0,1-.861.656,4.952,4.952,0,0,1-1.215.452,9.829,9.829,0,0,1-2.2.186h-1.8v-9.024Z" transform="translate(-480.713 -300.065)" fill="#fff"/>
      <path id="パス_3382" data-name="パス 3382" d="M561.3,301.042a7.728,7.728,0,0,1,5.55,2.111,7,7,0,0,1,2.22,5.292,6.9,6.9,0,0,1-2.238,5.269,7.967,7.967,0,0,1-5.647,2.084,7.5,7.5,0,0,1-5.417-2.084,6.95,6.95,0,0,1-2.167-5.227,7.105,7.105,0,0,1,2.182-5.334,7.612,7.612,0,0,1,5.517-2.111m.021,12.861a5.511,5.511,0,0,0,4.018-1.576,5.273,5.273,0,0,0,1.608-3.923,5.159,5.159,0,0,0-1.608-3.847A5.474,5.474,0,0,0,561.381,303a5.581,5.581,0,0,0-4.056,1.543,5.255,5.255,0,0,0-1.591,3.944,5.168,5.168,0,0,0,1.6,3.873,5.5,5.5,0,0,0,3.991,1.543m-.021-13.7a8.449,8.449,0,0,0-6.1,2.348,7.947,7.947,0,0,0-2.436,5.937,7.79,7.79,0,0,0,2.425,5.831,8.343,8.343,0,0,0,6,2.318,8.813,8.813,0,0,0,6.218-2.309,7.73,7.73,0,0,0,2.5-5.881,7.846,7.846,0,0,0-2.478-5.9A8.588,8.588,0,0,0,561.3,300.2Zm.021,12.864a4.655,4.655,0,0,1-3.409-1.31,4.323,4.323,0,0,1-1.342-3.27,4.421,4.421,0,0,1,1.337-3.344,4.747,4.747,0,0,1,3.474-1.307,4.624,4.624,0,0,1,3.374,1.325,4.3,4.3,0,0,1,1.357,3.243,4.421,4.421,0,0,1-1.36,3.323,4.657,4.657,0,0,1-3.43,1.339Z" transform="translate(-469.435 -300.202)" fill="#fff"/>
      <g id="グループ_1718" data-name="グループ 1718" transform="translate(2.153 24.768)">
        <path id="パス_3383" data-name="パス 3383" d="M555.262,308.634h7.114v1.6H557.06v2.98h3.764v1.608H557.06v4.742h5.487v1.6h-7.285Z" transform="translate(-466.701 -308.471)" fill="#fff"/>
        <path id="パス_3384" data-name="パス 3384" d="M535.326,308.634h1.679v12.548H535.2v-9.763l-3.859,4.234h-.331l-3.906-4.234v9.763h-1.795V308.634h1.7l4.169,4.538Z" transform="translate(-525.309 -308.471)" fill="#fff"/>
        <path id="パス_3385" data-name="パス 3385" d="M541.907,314.179h4.213v6.25a11.473,11.473,0,0,1-4.6,1.005,6.822,6.822,0,0,1-4.982-1.818,6.016,6.016,0,0,1-1.866-4.488,6.246,6.246,0,0,1,1.931-4.68,6.7,6.7,0,0,1,4.843-1.869,8.538,8.538,0,0,1,2.013.231,16.219,16.219,0,0,1,2.407.84v1.833a8.829,8.829,0,0,0-4.456-1.3,4.729,4.729,0,0,0-3.468,1.4,4.966,4.966,0,0,0,0,6.933,5.018,5.018,0,0,0,3.631,1.357,8.389,8.389,0,0,0,2.575-.494l.175-.053v-3.545h-2.419Z" transform="translate(-506.983 -308.579)" fill="#fff"/>
        <path id="パス_3386" data-name="パス 3386" d="M544.2,308.628h10.813L547,319.6h8.016v1.6H543.69l8.027-10.969H544.2Z" transform="translate(-489.344 -308.483)" fill="#fff"/>
        <path id="パス_3387" data-name="パス 3387" d="M548.356,308.634h1.8v12.548h-1.8Z" transform="translate(-480.214 -308.471)" fill="#fff"/>
        <path id="パス_3388" data-name="パス 3388" d="M560.09,308.634H561.8v12.548h-1.544l-8.391-9.665v9.665h-1.688V308.634h1.455l8.462,9.748Z" transform="translate(-476.659 -308.471)" fill="#fff"/>
        <g id="グループ_1716" data-name="グループ 1716" transform="translate(13.751 0.089)">
          <path id="パス_3389" data-name="パス 3389" d="M537.99,315.915l-2.025-4.547-1.878,4.547-.713,1.6-1.567,3.719H529.96l5.39-12.622h1.265l5.624,12.622H540.4l-1.673-3.719Z" transform="translate(-529.96 -308.609)" fill="#fff"/>
          <rect id="長方形_106" data-name="長方形 106" width="5.473" height="1.523" transform="translate(3.404 5.586)" fill="#fff"/>
        </g>
        <g id="グループ_1717" data-name="グループ 1717" transform="translate(41.112 0.089)">
          <path id="パス_3390" data-name="パス 3390" d="M547.244,315.915l-2.025-4.547-1.877,4.547-.713,1.6-1.567,3.719h-1.848l5.39-12.622h1.266l5.623,12.622h-1.839l-1.671-3.719Z" transform="translate(-539.214 -308.609)" fill="#fff"/>
          <rect id="長方形_107" data-name="長方形 107" width="5.473" height="1.523" transform="translate(3.403 5.586)" fill="#fff"/>
        </g>
      </g>
    </g>
  </g>
</svg>
