<svg xmlns="http://www.w3.org/2000/svg" width="180.21" height="26.523" viewBox="0 0 180.21 26.523">
  <g id="グループ_330" data-name="グループ 330" transform="translate(-72.712 -444.789)">
    <g id="グループ_327" data-name="グループ 327" transform="translate(72.712 444.789)">
      <path id="パス_1038" data-name="パス 1038" d="M72.712,444.789v1.4H94.134v23.715H72.712v1.4H95.538V444.789Z" transform="translate(-72.712 -444.789)" fill="#1a1311"/>
      <path id="パス_1039" data-name="パス 1039" d="M106.644,444.908l-22.866,19.8V449.962h-1.4v17.823l25.118-21.753.073-.063Z" transform="translate(-73.534 -444.799)" fill="#589f6a"/>
      <path id="パス_1040" data-name="パス 1040" d="M118.822,462.757H106.883V452.7h-1.4v19.284h1.4v-7.824h11.939Z" transform="translate(-75.5 -445.462)" fill="#1a1311"/>
      <circle id="楕円形_30" data-name="楕円形 30" cx="1.36" cy="1.36" r="1.36" transform="translate(36.072 10.557)" fill="#1a1311"/>
      <circle id="楕円形_31" data-name="楕円形 31" cx="1.36" cy="1.36" r="1.36" transform="translate(40.507 10.557)" fill="#1a1311"/>
    </g>
    <path id="パス_1041" data-name="パス 1041" d="M133.875,460.3a7.593,7.593,0,0,1,2.956.694v1.3a5.821,5.821,0,0,0-2.895-.846,3.346,3.346,0,0,0-2.409.917,3.232,3.232,0,0,0-.016,4.579,3.362,3.362,0,0,0,2.412.894,5.468,5.468,0,0,0,3-.942v1.329a6.3,6.3,0,0,1-3.07.726,4.729,4.729,0,0,1-2.4-.568,4.182,4.182,0,0,1-1.561-1.565,4.256,4.256,0,0,1-.574-2.158,4.118,4.118,0,0,1,1.316-3.1,4.509,4.509,0,0,1,3.242-1.257m0-.405a4.918,4.918,0,0,0-3.522,1.37,4.529,4.529,0,0,0-1.44,3.393,4.667,4.667,0,0,0,.629,2.361,4.606,4.606,0,0,0,1.708,1.715,5.156,5.156,0,0,0,2.6.622,6.735,6.735,0,0,0,3.264-.775l.211-.115v-2.314l-.625.4a5.091,5.091,0,0,1-2.779.877,2.947,2.947,0,0,1-2.133-.783,2.6,2.6,0,0,1-.817-1.991,2.628,2.628,0,0,1,.834-2,2.931,2.931,0,0,1,2.129-.8,5.453,5.453,0,0,1,2.694.793l.606.347v-2.265l-.245-.105a8.033,8.033,0,0,0-3.116-.727Z" transform="translate(-4.781 -1.285)" fill="#1a1311"/>
    <path id="パス_1042" data-name="パス 1042" d="M144.906,460.283a4.536,4.536,0,0,1,3.259,1.24,4.109,4.109,0,0,1,1.3,3.107,4.045,4.045,0,0,1-1.314,3.092,4.673,4.673,0,0,1-3.314,1.224,4.4,4.4,0,0,1-3.18-1.224,4.08,4.08,0,0,1-1.272-3.068,4.171,4.171,0,0,1,1.28-3.131,4.466,4.466,0,0,1,3.239-1.24m.012,7.55a3.236,3.236,0,0,0,2.359-.925,3.091,3.091,0,0,0,.945-2.3,3.02,3.02,0,0,0-.945-2.257,3.21,3.21,0,0,0-2.323-.916,3.277,3.277,0,0,0-2.382.906,3.088,3.088,0,0,0-.934,2.316,3.032,3.032,0,0,0,.937,2.273,3.229,3.229,0,0,0,2.343.907m-.012-7.955a4.883,4.883,0,0,0-3.521,1.353,4.584,4.584,0,0,0-1.4,3.423,4.486,4.486,0,0,0,1.4,3.36,4.814,4.814,0,0,0,3.461,1.338,5.086,5.086,0,0,0,3.59-1.333,4.451,4.451,0,0,0,1.443-3.388,4.518,4.518,0,0,0-1.428-3.4,4.951,4.951,0,0,0-3.538-1.351Zm.012,7.55a2.816,2.816,0,0,1-2.061-.792,2.62,2.62,0,0,1-.813-1.982,2.677,2.677,0,0,1,.811-2.025,2.864,2.864,0,0,1,2.1-.791,2.8,2.8,0,0,1,2.041.8,2.608,2.608,0,0,1,.822,1.966,2.681,2.681,0,0,1-.823,2.014,2.824,2.824,0,0,1-2.075.809Z" transform="translate(-5.723 -1.284)" fill="#1a1311"/>
    <path id="パス_1043" data-name="パス 1043" d="M155.3,460.415a3.055,3.055,0,0,1,2.035.635c.5.424.729.672.753,1.106a2.027,2.027,0,0,1-.37,1.275,2.187,2.187,0,0,1-1.058.8,2.437,2.437,0,0,1,.793.726c.2.324.671,1.2,1.155,2.164.294.479.463.888.64,1.131l.448.6h-1.439l-.369-.556c-.012-.02-.572-1.125-.572-1.125a10.185,10.185,0,0,0-1.2-2.025,2.632,2.632,0,0,0-.564-.444,1.915,1.915,0,0,0-.844-.135h-.314v4.286h-1.21v-8.445H155.3m-.906,3.083h.459a3.4,3.4,0,0,0,1.261-.157,1.655,1.655,0,0,0,.532-.474.794.794,0,0,0-.021-.834,1.129,1.129,0,0,0-.6-.457,4.3,4.3,0,0,0-1.273-.133h-.362V463.5m.906-3.489h-2.52v9.255H154.8v-4.285a1.337,1.337,0,0,1,.56.086,2.22,2.22,0,0,1,.471.375,9.4,9.4,0,0,1,1.118,1.907c.575,1.135.584,1.151.6,1.172l.372.564.12.181H160.5l-.479-.646-.447-.6a4.15,4.15,0,0,1-.254-.446c-.1-.194-.22-.416-.366-.656-.479-.952-.95-1.835-1.156-2.166a2.127,2.127,0,0,0-.38-.452,2.49,2.49,0,0,0,1.075-2.16,1.914,1.914,0,0,0-.9-1.4,3.458,3.458,0,0,0-2.3-.73Zm-.5,3.083v-1.244a3.69,3.69,0,0,1,1.1.11.729.729,0,0,1,.389.3.493.493,0,0,1,.051.352l-.052.059a1.128,1.128,0,0,1-.34.308,2.954,2.954,0,0,1-1.091.12Z" transform="translate(-6.811 -1.295)" fill="#1a1311"/>
    <path id="パス_1044" data-name="パス 1044" d="M167.981,460.415v1.077H164.4V463.5h2.534v1.082H164.4v3.191H168.1v1.076h-4.9v-8.433h4.788m.405-.405h-5.6v9.244H168.5v-1.887h-3.694v-2.381h2.534v-1.893h-2.534v-1.2h3.579V460.01Z" transform="translate(-7.663 -1.295)" fill="#1a1311"/>
    <path id="パス_1045" data-name="パス 1045" d="M264.32,460.453h4.788v1.077H265.53v2.006h2.533v1.082H265.53v3.191h3.693v1.076h-4.9Z" transform="translate(-16.3 -1.333)" fill="#1a1311"/>
    <path id="パス_1046" data-name="パス 1046" d="M174.694,460.415a6,6,0,0,1,2.726.517,3.889,3.889,0,0,1,1.6,1.521,4.224,4.224,0,0,1,.593,2.189,4.135,4.135,0,0,1-1.257,2.98,4.093,4.093,0,0,1-1.433.913,4.294,4.294,0,0,1-.876.251,11.826,11.826,0,0,1-1.525.063h-2.671v-8.433h2.846m-1.638,7.357H174.6a6.206,6.206,0,0,0,1.408-.123,3.329,3.329,0,0,0,.837-.315,2.829,2.829,0,0,0,.614-.468,3.131,3.131,0,0,0,.895-2.291,2.9,2.9,0,0,0-.919-2.219,2.937,2.937,0,0,0-.778-.525,3.217,3.217,0,0,0-.832-.273,8.52,8.52,0,0,0-1.264-.066h-1.511v6.28m1.638-7.762h-3.252v9.244h3.076a11.784,11.784,0,0,0,1.588-.069,4.664,4.664,0,0,0,.961-.274,4.589,4.589,0,0,0,2.589-2.492,4.564,4.564,0,0,0,.358-1.778,4.642,4.642,0,0,0-.65-2.394,4.3,4.3,0,0,0-1.759-1.675,6.423,6.423,0,0,0-2.911-.562Zm-1.232,1.887h1.105a8.2,8.2,0,0,1,1.2.06,2.818,2.818,0,0,1,.726.24,2.522,2.522,0,0,1,.671.453,2.492,2.492,0,0,1,.792,1.924,2.716,2.716,0,0,1-.778,2.006,2.477,2.477,0,0,1-.525.4,2.913,2.913,0,0,1-.735.274,5.872,5.872,0,0,1-1.311.112h-1.143V461.9Z" transform="translate(-8.399 -1.295)" fill="#1a1311"/>
    <path id="パス_1047" data-name="パス 1047" d="M187.3,460.283a4.536,4.536,0,0,1,3.259,1.24,4.11,4.11,0,0,1,1.3,3.107,4.045,4.045,0,0,1-1.314,3.092,4.674,4.674,0,0,1-3.314,1.224,4.4,4.4,0,0,1-3.18-1.224,4.08,4.08,0,0,1-1.272-3.068,4.171,4.171,0,0,1,1.28-3.131,4.464,4.464,0,0,1,3.238-1.24m.013,7.55a3.232,3.232,0,0,0,2.358-.925,3.088,3.088,0,0,0,.945-2.3,3.016,3.016,0,0,0-.945-2.257,3.208,3.208,0,0,0-2.322-.916,3.281,3.281,0,0,0-2.382.906,3.091,3.091,0,0,0-.933,2.316,3.029,3.029,0,0,0,.937,2.273,3.229,3.229,0,0,0,2.343.907m-.013-7.955a4.881,4.881,0,0,0-3.52,1.353,4.584,4.584,0,0,0-1.4,3.423,4.486,4.486,0,0,0,1.4,3.36,4.814,4.814,0,0,0,3.461,1.338,5.087,5.087,0,0,0,3.59-1.333,4.454,4.454,0,0,0,1.443-3.388,4.518,4.518,0,0,0-1.428-3.4,4.951,4.951,0,0,0-3.539-1.351Zm.013,7.55a2.816,2.816,0,0,1-2.061-.792,2.62,2.62,0,0,1-.813-1.982,2.677,2.677,0,0,1,.811-2.025,2.863,2.863,0,0,1,2.1-.791,2.794,2.794,0,0,1,2.04.8,2.605,2.605,0,0,1,.823,1.966,2.681,2.681,0,0,1-.823,2.014,2.825,2.825,0,0,1-2.075.809Z" transform="translate(-9.329 -1.284)" fill="#1a1311"/>
    <path id="パス_1048" data-name="パス 1048" d="M205.924,460.453h1.131V468.9h-1.216v-6.57l-2.6,2.85h-.224l-2.627-2.85v6.57h-1.209v-8.445h1.145l2.806,3.054Z" transform="translate(-10.759 -1.333)" fill="#1a1311"/>
    <path id="パス_1049" data-name="パス 1049" d="M224.419,464.1h2.835v4.2a7.723,7.723,0,0,1-3.1.677,4.593,4.593,0,0,1-3.352-1.224,4.052,4.052,0,0,1-1.254-3.019,4.2,4.2,0,0,1,1.3-3.149,4.5,4.5,0,0,1,3.259-1.257,5.75,5.75,0,0,1,1.354.154,10.984,10.984,0,0,1,1.619.565v1.232a5.945,5.945,0,0,0-3-.876,3.184,3.184,0,0,0-2.333.943,3.342,3.342,0,0,0,0,4.667,3.377,3.377,0,0,0,2.442.912,5.7,5.7,0,0,0,1.735-.332l.115-.036V465.18h-1.626Z" transform="translate(-12.492 -1.322)" fill="#1a1311"/>
    <path id="パス_1050" data-name="パス 1050" d="M239.5,460.44h7.276l-5.394,7.381h5.394V468.9h-7.621l5.4-7.381H239.5Z" transform="translate(-14.159 -1.331)" fill="#1a1311"/>
    <path id="パス_1051" data-name="パス 1051" d="M249.3,460.453h1.21V468.9H249.3Z" transform="translate(-15.022 -1.333)" fill="#1a1311"/>
    <path id="パス_1052" data-name="パス 1052" d="M259.927,460.453h1.148V468.9h-1.039l-5.646-6.5v6.5h-1.136v-8.445h.98l5.694,6.56Z" transform="translate(-15.359 -1.333)" fill="#1a1311"/>
    <g id="グループ_328" data-name="グループ 328" transform="translate(197.68 459.072)">
      <path id="パス_1053" data-name="パス 1053" d="M214.7,465.315l-1.362-3.059-1.264,3.059-.479,1.076-1.056,2.5H209.3l3.627-8.493h.851l3.785,8.493h-1.237l-1.125-2.5Z" transform="translate(-209.299 -460.4)" fill="#1a1311"/>
      <rect id="長方形_97" data-name="長方形 97" width="3.683" height="1.025" transform="translate(2.29 3.759)" fill="#1a1311"/>
    </g>
    <g id="グループ_329" data-name="グループ 329" transform="translate(216.091 459.072)">
      <path id="パス_1054" data-name="パス 1054" d="M234.826,465.315l-1.362-3.059-1.264,3.059-.479,1.076-1.056,2.5h-1.242l3.627-8.493h.851l3.786,8.493h-1.238l-1.124-2.5Z" transform="translate(-229.422 -460.4)" fill="#1a1311"/>
      <rect id="長方形_98" data-name="長方形 98" width="3.683" height="1.025" transform="translate(2.29 3.759)" fill="#1a1311"/>
    </g>
  </g>
</svg>
